<?xml version="1.0" encoding="UTF-8"?>
<svg version="1.1" xmlns="http://www.w3.org/2000/svg" width="400" height="400">
<path d="M0 0 C132 0 264 0 400 0 C400 132 400 264 400 400 C268 400 136 400 0 400 C0 268 0 136 0 0 Z " fill="#FEFEFE" transform="translate(0,0)"/>
<path d="M0 0 C5.82039808 3.07555126 8.36390188 8.21081323 10.5625 14.21484375 C11.21720441 18.04673116 11.24819824 21.77525269 11.20947266 25.65625 C11.21823425 26.75355438 11.22699585 27.85085876 11.23602295 28.98141479 C11.25788917 32.58046935 11.24350834 36.1782784 11.2265625 39.77734375 C11.22993427 42.29500563 11.23478989 44.81266593 11.24105835 47.33032227 C11.2484124 52.59566775 11.23825364 57.86069413 11.21435547 63.12597656 C11.1871498 69.18950276 11.19596634 75.252188 11.2234875 81.31569386 C11.24902375 87.17946182 11.2461785 93.04291348 11.23157883 98.90670776 C11.22825564 101.38809326 11.23229336 103.86950038 11.24397659 106.3508606 C11.25674875 109.82562198 11.23721649 113.29879378 11.20947266 116.7734375 C11.22465439 118.29491898 11.22465439 118.29491898 11.24014282 119.84713745 C11.12831848 127.44935579 9.35410658 134.51921991 3.74251747 139.98875427 C-0.93138057 143.61273771 -5.83637698 143.90482193 -11.6015625 143.62890625 C-17.34021589 142.79103124 -20.80248217 140.33852162 -24.3125 135.71484375 C-26.87904182 131.9755113 -27.54578959 128.48829716 -27.64282227 123.99707031 C-27.6727401 122.76624725 -27.6727401 122.76624725 -27.70326233 121.51055908 C-27.71997482 120.63437927 -27.73668732 119.75819946 -27.75390625 118.85546875 C-27.77468735 117.9510907 -27.79546844 117.04671265 -27.81687927 116.1149292 C-27.8821594 113.2316432 -27.94115952 110.34826765 -28 107.46484375 C-28.04320571 105.50780331 -28.08682065 103.55077187 -28.13085938 101.59375 C-28.23781872 96.80087255 -28.33914673 92.00790521 -28.4375 87.21484375 C-28.96940948 87.62209183 -29.50131897 88.0293399 -30.04934692 88.44892883 C-30.75638763 88.98567734 -31.46342834 89.52242584 -32.19189453 90.07543945 C-32.88880402 90.60643753 -33.5857135 91.13743561 -34.30374146 91.68452454 C-37.47018865 93.95548204 -40.81482822 95.7022357 -44.3125 97.40234375 C-45.00432373 97.74330078 -45.69614746 98.08425781 -46.40893555 98.43554688 C-52.44143045 101.34317989 -58.64250314 104.21484375 -65.4375 104.21484375 C-65.4060791 104.98562256 -65.3746582 105.75640137 -65.34228516 106.55053711 C-65.21662376 110.08416726 -65.13922907 113.61732604 -65.0625 117.15234375 C-65.01222656 118.36470703 -64.96195313 119.57707031 -64.91015625 120.82617188 C-64.77942738 128.8659971 -65.75750511 134.28248147 -71.4375 140.21484375 C-77.21527737 144.02817681 -83.72275772 144.01769337 -90.4375 143.21484375 C-94.82426694 141.89881367 -97.50639406 139.50695278 -99.8125 135.58984375 C-100.34875 134.47609375 -100.885 133.36234375 -101.4375 132.21484375 C-101.7675 131.55484375 -102.0975 130.89484375 -102.4375 130.21484375 C-102.5554974 127.88865937 -102.60739764 125.55904238 -102.63037109 123.22998047 C-102.64263733 122.15154121 -102.64263733 122.15154121 -102.65515137 121.05131531 C-102.68001363 118.66572908 -102.69652756 116.28020259 -102.7109375 113.89453125 C-102.71626118 113.07890842 -102.72158485 112.2632856 -102.72706985 111.42294693 C-102.753811 107.10196116 -102.77317873 102.78100431 -102.78759766 98.45996094 C-102.80091372 94.89036297 -102.82872091 91.3213398 -102.86962891 87.75195312 C-102.91907252 83.4377643 -102.94373365 79.12409521 -102.95082474 74.80963516 C-102.95751944 73.1694484 -102.97269505 71.52927242 -102.99671555 69.88924789 C-103.22594707 53.28450676 -103.22594707 53.28450676 -97.4375 47.21484375 C-93.44191896 43.12482743 -90.27609775 41.86628168 -84.5 41.58984375 C-77.16764183 41.91103591 -72.90118291 44.56164677 -68 49.83984375 C-65.84500405 53.1154376 -65.31265817 55.61214551 -65.33984375 59.4453125 C-65.34306641 60.24775391 -65.34628906 61.05019531 -65.34960938 61.87695312 C-65.36217773 63.12702148 -65.36217773 63.12702148 -65.375 64.40234375 C-65.37951172 65.24732422 -65.38402344 66.09230469 -65.38867188 66.96289062 C-65.40044597 69.0469053 -65.4183811 71.13088352 -65.4375 73.21484375 C-49.54090179 66.07433916 -36.98832358 57.26987632 -29.35717773 40.89697266 C-28.34848294 37.95523625 -28.18313083 35.64230511 -28.1640625 32.5390625 C-28.1434375 31.46333984 -28.1228125 30.38761719 -28.1015625 29.27929688 C-28.07565726 27.03978918 -28.05734669 24.80017991 -28.046875 22.56054688 C-27.87772394 14.69032413 -26.71534737 9.29123863 -21.75390625 3.12109375 C-15.30013763 -2.05342007 -7.80982801 -2.51566575 0 0 Z " fill="#0250F0" transform="translate(246.4375,93.78515625)"/>
<path d="M0 0 C4.97595063 2.92976532 8.73149867 6.46793351 10.58984375 12.04296875 C10.71033201 14.43238364 10.76972995 16.82500834 10.79858398 19.21728516 C10.81325966 20.30816437 10.81325966 20.30816437 10.82823181 21.42108154 C10.85815219 23.82887963 10.87956618 26.2366221 10.8984375 28.64453125 C10.90500933 29.46902142 10.91158115 30.29351158 10.91835213 31.1429863 C10.95093695 35.51050857 10.97538548 39.8780066 10.99487305 44.24560547 C11.01265536 47.85013617 11.04742614 51.45388 11.09741211 55.05810547 C11.15781295 59.4188654 11.18837613 63.77889832 11.19804573 68.14005661 C11.20657068 69.79619177 11.22531545 71.45230907 11.25478935 73.10820389 C11.51745068 88.70980404 11.51745068 88.70980404 6.1856842 95.48446655 C1.87226639 99.69696231 -2.62614115 100.23526113 -8.41015625 100.48046875 C-13.99688673 100.31286684 -17.05987215 99.57757459 -21.41015625 96.04296875 C-23.06196893 93.76792613 -24.17877298 91.60045708 -25.41015625 89.04296875 C-25.74015625 88.38296875 -26.07015625 87.72296875 -26.41015625 87.04296875 C-26.52815365 84.71678437 -26.58005389 82.38716738 -26.60302734 80.05810547 C-26.61529358 78.97966621 -26.61529358 78.97966621 -26.62780762 77.87944031 C-26.65266988 75.49385408 -26.66918381 73.10832759 -26.68359375 70.72265625 C-26.68891743 69.90703342 -26.6942411 69.0914106 -26.6997261 68.25107193 C-26.72646725 63.93008616 -26.74583498 59.60912931 -26.76025391 55.28808594 C-26.77356997 51.71848797 -26.80137716 48.1494648 -26.84228516 44.58007812 C-26.89172877 40.2658893 -26.9163899 35.95222021 -26.92348099 31.63776016 C-26.93017569 29.9975734 -26.9453513 28.35739742 -26.9693718 26.71737289 C-27.19860332 10.11263176 -27.19860332 10.11263176 -21.41015625 4.04296875 C-15.57013572 -1.93508025 -7.85693568 -3.1198529 0 0 Z " fill="#024FEF" transform="translate(170.41015625,136.95703125)"/>
<path d="M0 0 C0.33 0 0.66 0 1 0 C1.22882192 6.70709388 1.38605617 13.41317718 1.49438477 20.12329102 C1.53955429 22.40394702 1.60090662 24.68434368 1.67895508 26.96411133 C1.78856611 30.24886021 1.83925812 33.53015797 1.87890625 36.81640625 C1.92535782 37.83021866 1.97180939 38.84403107 2.01966858 39.88856506 C2.02269542 44.16522345 1.98828049 46.88537057 -0.92192078 50.16763306 C-3.20876445 51.97866214 -5.4844041 53.52652873 -8 55 C-8.7212355 55.4246907 -9.44247101 55.84938141 -10.18556213 56.28694153 C-12.07207974 57.35341485 -13.98357099 58.3132413 -15.9375 59.25 C-16.62481201 59.58644531 -17.31212402 59.92289063 -18.02026367 60.26953125 C-24.03679666 63.14899806 -30.2346357 66 -37 66 C-37 55.77 -37 45.54 -37 35 C-34.586875 33.88625 -32.17375 32.7725 -29.6875 31.625 C-16.07427764 24.97394875 -5.29505668 14.46261751 0 0 Z " fill="#639FF4" transform="translate(218,132)"/>
<path d="M0 0 C1.11761719 0.01804687 2.23523438 0.03609375 3.38671875 0.0546875 C6.1337003 0.10164445 8.87890047 0.16730532 11.625 0.25 C11.69942006 5.26705721 11.75372908 10.28378972 11.78979492 15.30126953 C11.80483738 17.00640463 11.82527653 18.71150132 11.85131836 20.41650391 C11.88790284 22.87412012 11.90477173 25.33122269 11.91796875 27.7890625 C11.93345261 28.54555084 11.94893646 29.30203918 11.96488953 30.08145142 C11.96639733 34.87446511 11.24045464 38.08316268 8.625 42.25 C4.90946925 45.60303995 2.51223201 47.37518618 -2.47265625 47.3828125 C-3.67438477 47.38474609 -3.67438477 47.38474609 -4.90039062 47.38671875 C-5.73763672 47.38285156 -6.57488281 47.37898438 -7.4375 47.375 C-8.27861328 47.37886719 -9.11972656 47.38273437 -9.98632812 47.38671875 C-16.24837318 47.37662682 -16.24837318 47.37662682 -17.375 46.25 C-17.41580783 44.25041636 -17.41754356 42.24954746 -17.375 40.25 C-14.08896618 39.40199127 -11.23355711 39.27489874 -7.875 39.4375 C-4.49601216 39.47128988 -3.44151816 39.28741646 -0.375 37.5625 C1.80668017 35.03993231 2.35108098 33.5370282 2.625 30.25 C1.614375 30.745 0.60375 31.24 -0.4375 31.75 C-5.75293026 33.98526142 -9.67415743 33.94186816 -15.0625 31.75 C-19.12943929 29.1211451 -21.07557539 25.87103073 -22.375 21.25 C-23.10849599 15.91892092 -23.0677799 11.71549595 -20.75 6.8125 C-14.2163865 -0.23692509 -9.35941784 -0.28662528 0 0 Z " fill="#064EE9" transform="translate(300.375,271.75)"/>
<path d="M0 0 C4.25899935 2.50788185 6.92155733 6.35134003 9.265625 10.61328125 C10.83307429 16.88307839 9.83412766 21.43652611 6.890625 27.11328125 C4.11943634 31.31784336 1.68329573 33.48719654 -3.109375 35.11328125 C-8.67957606 35.74069401 -13.42407114 35.90997035 -18.546875 33.48828125 C-26.90474727 25.74196061 -26.90474727 25.74196061 -27.3125 20.50390625 C-27.47416971 9.67203538 -27.47416971 9.67203538 -24.109375 5.11328125 C-16.98434453 -2.01174922 -9.51768132 -3.95321015 0 0 Z " fill="#0650EC" transform="translate(171.109375,93.88671875)"/>
<path d="M0 0 C5.2354914 2.47495957 9.39229231 6.78458462 12 12 C12.68911981 19.44475339 12.63396217 24.9883734 8 31 C3.50869957 35.37310832 -0.71593157 36.74212131 -6.875 37.4375 C-12.96071368 37.27428163 -17.32289923 33.76536923 -21.375 29.5 C-24.64052178 24.47612033 -25.85559022 20.01135469 -25 14 C-23.32273088 8.00010441 -19.92157139 4.26742997 -14.63671875 1.0703125 C-9.78112903 -0.90069725 -5.11929186 -0.84833979 0 0 Z " fill="#0550EC" transform="translate(244,47)"/>
<path d="M0 0 C3.3 0 6.6 0 10 0 C10 5.94 10 11.88 10 18 C15.94 18 21.88 18 28 18 C28 12.06 28 6.12 28 0 C31.3 0 34.6 0 38 0 C38 14.85 38 29.7 38 45 C34.7 45 31.4 45 28 45 C28 38.73 28 32.46 28 26 C22.06 26 16.12 26 10 26 C10 32.27 10 38.54 10 45 C6.7 45 3.4 45 0 45 C0 30.15 0 15.3 0 0 Z " fill="#0D53E4" transform="translate(88,259)"/>
<path d="M0 0 C0.99 0 1.98 0 3 0 C6.3 0 9.6 0 13 0 C13 10.56 13 21.12 13 32 C9.7 32 6.4 32 3 32 C3 31.34 3 30.68 3 30 C2.154375 30.495 1.30875 30.99 0.4375 31.5 C-4.5482827 33.67561427 -8.09557546 33.70949149 -13.1875 31.8125 C-17.45243821 29.06398426 -19.99649929 25.61490122 -22 21 C-23.03376219 14.60509899 -21.76615993 9.24656871 -18 4 C-12.76659764 -1.23340236 -6.91410291 -0.35917418 0 0 Z " fill="#1255DF" transform="translate(154,272)"/>
<path d="M0 0 C1.03382813 0.00386719 2.06765625 0.00773437 3.1328125 0.01171875 C5.875 0.3125 5.875 0.3125 8.875 2.3125 C8.875 1.6525 8.875 0.9925 8.875 0.3125 C11.845 0.3125 14.815 0.3125 17.875 0.3125 C17.875 10.8725 17.875 21.4325 17.875 32.3125 C14.905 32.3125 11.935 32.3125 8.875 32.3125 C8.545 31.6525 8.215 30.9925 7.875 30.3125 C7.029375 30.8075 6.18375 31.3025 5.3125 31.8125 C1.39416938 33.522317 -0.89313363 33.8414833 -5.125 33.3125 C-9.1837485 31.08416749 -14.2020105 28.15580324 -15.70703125 23.51953125 C-16.82382083 17.62246476 -17.43779433 11.45870075 -13.9375 6.3125 C-10.16358961 1.52023284 -6.01280089 -0.0979529 0 0 Z " fill="#0850E9" transform="translate(213.125,271.6875)"/>
<path d="M0 0 C3.3 0 6.6 0 10 0 C10.33 0.66 10.66 1.32 11 2 C11.99 1.34 12.98 0.68 14 0 C18.37132214 -0.65192402 22.99201428 -1.00981874 27.01953125 1.015625 C29.64386477 3.13552458 30.93019679 4.79059036 32 8 C32.08239169 9.84610532 32.10743359 11.69505164 32.09765625 13.54296875 C32.09443359 14.61611328 32.09121094 15.68925781 32.08789062 16.79492188 C32.07532227 18.47424805 32.07532227 18.47424805 32.0625 20.1875 C32.05798828 21.31865234 32.05347656 22.44980469 32.04882812 23.61523438 C32.03703498 26.41020927 32.0205765 29.2050782 32 32 C29.03 32 26.06 32 23 32 C22.96261719 30.51886719 22.92523438 29.03773438 22.88671875 27.51171875 C22.82106646 25.57028686 22.75461887 23.62888174 22.6875 21.6875 C22.66494141 20.71103516 22.64238281 19.73457031 22.61914062 18.72851562 C22.5659668 17.32182617 22.5659668 17.32182617 22.51171875 15.88671875 C22.48553467 15.02264404 22.45935059 14.15856934 22.43237305 13.26831055 C21.91352259 10.54632321 21.22251413 9.62086252 19 8 C15.90498792 7.74734595 13.79870027 7.60064987 11 9 C10.67 16.59 10.34 24.18 10 32 C6.7 32 3.4 32 0 32 C0 21.44 0 10.88 0 0 Z " fill="#0A4FE4" transform="translate(240,272)"/>
<path d="M0 0 C1.98 0 3.96 0 6 0 C6 9.9 6 19.8 6 30 C3 30 0 30 -3 30 C-3.721875 30.33 -4.44375 30.66 -5.1875 31 C-8.72872752 32.25910312 -11.25865294 32.39382601 -15 32 C-18.25 30.1875 -18.25 30.1875 -21 28 C-21.53753906 27.5875 -22.07507813 27.175 -22.62890625 26.75 C-24.62575079 24.20132093 -24.51580388 22.00604788 -24.6875 18.8125 C-24.75324219 17.72582031 -24.81898438 16.63914062 -24.88671875 15.51953125 C-24.92410156 14.68808594 -24.96148437 13.85664063 -25 13 C-24.34 13 -23.68 13 -23 13 C-22.67 12.34 -22.34 11.68 -22 11 C-20.68 11.33 -19.36 11.66 -18 12 C-17.89042969 12.61488281 -17.78085938 13.22976563 -17.66796875 13.86328125 C-17.50941406 14.67152344 -17.35085937 15.47976563 -17.1875 16.3125 C-17.03667969 17.11300781 -16.88585937 17.91351563 -16.73046875 18.73828125 C-15.89505307 21.32494262 -15.20317702 22.41693917 -13 24 C-10.82281744 24.43608804 -10.82281744 24.43608804 -8.5 24.3125 C-7.33984375 24.30669922 -7.33984375 24.30669922 -6.15625 24.30078125 C-3.70675054 24.11825461 -3.70675054 24.11825461 -1 22 C-0.61588725 19.390379 -0.39706803 16.9941926 -0.3125 14.375 C-0.27833984 13.66859375 -0.24417969 12.9621875 -0.20898438 12.234375 C-0.12648692 10.49014312 -0.06156665 8.74509605 0 7 C-0.99 6.67 -1.98 6.34 -3 6 C-3.66 5.34 -4.32 4.68 -5 4 C-5.66 4 -6.32 4 -7 4 C-7 3.34 -7 2.68 -7 2 C-4.69 2 -2.38 2 0 2 C0 1.34 0 0.68 0 0 Z " fill="#044FED" transform="translate(223,273)"/>
<path d="M0 0 C3.3 0 6.6 0 10 0 C10 0.99 10 1.98 10 3 C10.804375 2.2575 10.804375 2.2575 11.625 1.5 C14.59358445 -0.37489544 16.55312427 -0.23501425 20 0 C20 2.64 20 5.28 20 8 C17.03 8.99 14.06 9.98 11 11 C10.67 18.26 10.34 25.52 10 33 C6.7 33 3.4 33 0 33 C0 22.11 0 11.22 0 0 Z " fill="#014EF0" transform="translate(175,272)"/>
<path d="M0 0 C2.31 0 4.62 0 7 0 C7 13.86 7 27.72 7 42 C4.69 42 2.38 42 0 42 C0 35.4 0 28.8 0 22 C-4.62 22 -9.24 22 -14 22 C-13.34 20.68 -12.68 19.36 -12 18 C-9.3984375 17.390625 -9.3984375 17.390625 -6.375 17.25 C-3.714375 17.12625 -3.714375 17.12625 -1 17 C-0.67 11.39 -0.34 5.78 0 0 Z " fill="#024EEF" transform="translate(117,261)"/>
<path d="M0 0 C4.29 0 8.58 0 13 0 C13 2.31 13 4.62 13 7 C9.7 7 6.4 7 3 7 C3 7.99 3 8.98 3 10 C7.29 10 11.58 10 16 10 C16 6.7 16 3.4 16 0 C16.99 0 17.98 0 19 0 C19 1.65 19 3.3 19 5 C20.32 5 21.64 5 23 5 C23 5.66 23 6.32 23 7 C21.68 7 20.36 7 19 7 C18.85024761 14.05651252 18.85024761 14.05651252 20 21 C16.53767506 23.30821663 15.08201684 23.27000989 11 23.25 C9.948125 23.25515625 8.89625 23.2603125 7.8125 23.265625 C5 23 5 23 2 21 C2.75 16.25 2.75 16.25 5 14 C3.68 13.67 2.36 13.34 1 13 C1 10.36 1 7.72 1 5 C3.97 5 6.94 5 10 5 C10 4.34 10 3.68 10 3 C6.7 3 3.4 3 0 3 C0 2.01 0 1.02 0 0 Z " fill="#ACACAC" transform="translate(130,327)"/>
<path d="M0 0 C6.27 0 12.54 0 19 0 C19 9.9 19 19.8 19 30 C17.02 30 15.04 30 13 30 C12.87625 29.195625 12.7525 28.39125 12.625 27.5625 C12.41875 26.716875 12.2125 25.87125 12 25 C11.34 24.67 10.68 24.34 10 24 C10.33 23.67 10.66 23.34 11 23 C11.07271741 20.64686445 11.08370868 18.29166332 11.0625 15.9375 C11.05347656 14.64714844 11.04445312 13.35679687 11.03515625 12.02734375 C11.02355469 11.02832031 11.01195312 10.02929688 11 9 C9.68 8.34 8.36 7.68 7 7 C7 6.34 7 5.68 7 5 C6.236875 4.855625 5.47375 4.71125 4.6875 4.5625 C2 4 2 4 -1 3 C-0.67 2.01 -0.34 1.02 0 0 Z " fill="#024FF0" transform="translate(146,273)"/>
<path d="M0 0 C3.64921458 1.21640486 3.91664263 2.01852542 5.65003967 5.34046936 C8.39767929 11.15706404 8.69130103 16.19806045 8.59936523 22.55249023 C8.60330795 23.66103867 8.60725067 24.7695871 8.61131287 25.91172791 C8.61797964 29.54448892 8.58896132 33.17596902 8.55859375 36.80859375 C8.55434039 39.34302019 8.55201471 41.87745053 8.55152893 44.41188049 C8.54537962 49.70666613 8.52338942 55.00101735 8.48706055 60.2956543 C8.44518622 66.41476363 8.42773602 72.53354802 8.4244408 78.65279239 C8.42118951 84.55390461 8.40609471 90.45492803 8.3844471 96.35600471 C8.37555678 98.86270547 8.36883073 101.36941484 8.36428642 103.87612724 C8.35527371 107.36865741 8.33291278 110.86083601 8.30639648 114.35327148 C8.30573181 115.3927594 8.30506714 116.43224731 8.30438232 117.50323486 C8.2944072 118.45212082 8.28443207 119.40100677 8.27415466 120.37864685 C8.26950416 121.20356849 8.26485365 122.02849012 8.26006222 122.87840939 C8 125 8 125 6 128 C6 88.73 6 49.46 6 9 C5.34 9 4.68 9 4 9 C3.566875 7.88625 3.566875 7.88625 3.125 6.75 C2.17697356 4.43260203 1.15154089 2.22082885 0 0 Z " fill="#396BD7" transform="translate(249,97)"/>
<path d="M0 0 C3.07689019 0.44754766 4.77512159 1.05520822 7.4375 2.5 C7.5455023 4.60304477 7.62308987 6.70766909 7.6875 8.8125 C7.73390625 9.98425781 7.7803125 11.15601563 7.828125 12.36328125 C7.4375 15.5 7.4375 15.5 5.63671875 17.38671875 C2.33975605 19.05569632 0.07683641 19.01078406 -3.5625 18.5 C-7.22079624 15.93140902 -8.38477491 14.47748801 -9.1875 10.0625 C-8.19142227 4.38485692 -6.12204621 0.85923456 0 0 Z " fill="#EAF3FD" transform="translate(295.5625,278.5)"/>
<path d="M0 0 C3.07689019 0.44754766 4.77512159 1.05520822 7.4375 2.5 C7.5455023 4.60304477 7.62308987 6.70766909 7.6875 8.8125 C7.73390625 9.98425781 7.7803125 11.15601563 7.828125 12.36328125 C7.4375 15.5 7.4375 15.5 5.63671875 17.38671875 C2.33975605 19.05569632 0.07683641 19.01078406 -3.5625 18.5 C-7.22079624 15.93140902 -8.38477491 14.47748801 -9.1875 10.0625 C-8.19142227 4.38485692 -6.12204621 0.85923456 0 0 Z " fill="#ECF5FD" transform="translate(214.5625,278.5)"/>
<path d="M0 0 C1.874035 1.874035 1.25989078 4.86637064 1.3125 7.375 C1.34988281 8.53773438 1.38726562 9.70046875 1.42578125 10.8984375 C1 14 1 14 -0.80078125 15.88671875 C-4.04980847 17.53143057 -6.41692903 17.44788387 -10 17 C-12.4375 15.625 -12.4375 15.625 -14 13 C-14.60812531 9.5463072 -14.6408908 6.45051029 -14 3 C-10.2969223 -2.13652713 -5.62254465 -1.35916885 0 0 Z " fill="#F1F9FD" transform="translate(156,280)"/>
<path d="M0 0 C2.9375 1 2.9375 1 4.8125 2.5625 C6.94043513 7.17302612 6.51554932 11.36786075 4.875 16 C2.9375 18 2.9375 18 -0.5625 18.5625 C-4.0625 18 -4.0625 18 -5.75390625 16.27734375 C-8.00759561 12.35525151 -7.7099035 8.38634054 -7.0625 4 C-4.95122877 0.5082822 -4.07609263 0 0 0 Z " fill="#878787" transform="translate(280.0625,328)"/>
<path d="M0 0 C0.66 0 1.32 0 2 0 C2 7.26 2 14.52 2 22 C1.34 22 0.68 22 0 22 C0 18.37 0 14.74 0 11 C-1.32 11 -2.64 11 -4 11 C-4.33 13.31 -4.66 15.62 -5 18 C-6.32 18.33 -7.64 18.66 -9 19 C-8.690625 18.01 -8.38125 17.02 -8.0625 16 C-6.91566793 12.02268878 -6.43287644 8.11232621 -6 4 C-6.99 4 -7.98 4 -9 4 C-9.04898438 4.67546875 -9.09796875 5.3509375 -9.1484375 6.046875 C-9.22320312 6.93890625 -9.29796875 7.8309375 -9.375 8.75 C-9.44460937 9.63171875 -9.51421875 10.5134375 -9.5859375 11.421875 C-9.99850055 13.99066382 -10.71160957 15.75841015 -12 18 C-12.99 18 -13.98 18 -15 18 C-14.01 13.38 -13.02 8.76 -12 4 C-12.66 4 -13.32 4 -14 4 C-14 3.01 -14 2.02 -14 1 C-10.37 1 -6.74 1 -3 1 C-3 3.64 -3 6.28 -3 9 C-2.01 9 -1.02 9 0 9 C0 6.03 0 3.06 0 0 Z " fill="#7E7E7E" transform="translate(204,327)"/>
<path d="M0 0 C5.61 0 11.22 0 17 0 C17 2.97 17 5.94 17 9 C11.39 9 5.78 9 0 9 C0 6.03 0 3.06 0 0 Z " fill="#919191" transform="translate(168,341)"/>
<path d="M0 0 C5.94 0 11.88 0 18 0 C18 0.99 18 1.98 18 3 C17.01 3 16.02 3 15 3 C15 3.99 15 4.98 15 6 C16.32 6 17.64 6 19 6 C19 6.99 19 7.98 19 9 C12.73 9 6.46 9 0 9 C0 8.01 0 7.02 0 6 C0.99 6 1.98 6 3 6 C3 5.01 3 4.02 3 3 C2.01 3 1.02 3 0 3 C0 2.01 0 1.02 0 0 Z " fill="#929292" transform="translate(250,341)"/>
<path d="M0 0 C2.375 1.5625 2.375 1.5625 4 4 C3.78571429 10.21428571 3.78571429 10.21428571 1 13 C-6.1372549 13.67973856 -6.1372549 13.67973856 -9.0625 11.375 C-10.34452118 8.12721302 -10.05543562 6.30703161 -9 3 C-6.2508508 0.054483 -3.9684007 -0.69447012 0 0 Z " fill="#898989" transform="translate(116,333)"/>
<path d="M0 0 C3.3 0 6.6 0 10 0 C10 10.56 10 21.12 10 32 C6.7 32 3.4 32 0 32 C0 31.34 0 30.68 0 30 C-1.32 30.33 -2.64 30.66 -4 31 C-3.67 29.68 -3.34 28.36 -3 27 C-5.31 27 -7.62 27 -10 27 C-10.33 26.34 -10.66 25.68 -11 25 C-10.04287109 24.80083984 -10.04287109 24.80083984 -9.06640625 24.59765625 C-8.24011719 24.42105469 -7.41382813 24.24445313 -6.5625 24.0625 C-5.32693359 23.80146484 -5.32693359 23.80146484 -4.06640625 23.53515625 C-2.02338796 23.19247006 -2.02338796 23.19247006 -1 22 C-0.76572222 19.98405418 -0.58663876 17.961526 -0.4375 15.9375 C-0.35371094 14.83277344 -0.26992187 13.72804688 -0.18359375 12.58984375 C-0.12300781 11.73519531 -0.06242188 10.88054687 0 10 C0.33 10 0.66 10 1 10 C1 15.33333333 1 20.66666667 1 26 C1.66 26.33 2.32 26.66 3 27 C2.67 28.32 2.34 29.64 2 31 C3.98 31 5.96 31 8 31 C8 21.1 8 11.2 8 1 C5.36 1.33 2.72 1.66 0 2 C0 1.34 0 0.68 0 0 Z " fill="#3C6CD7" transform="translate(157,272)"/>
<path d="M0 0 C1.65 0.33 3.3 0.66 5 1 C4.67 8.59 4.34 16.18 4 24 C2.02 24 0.04 24 -2 24 C-2.05410136 20.93726169 -2.09372225 17.87548548 -2.125 14.8125 C-2.14175781 13.94818359 -2.15851563 13.08386719 -2.17578125 12.19335938 C-2.21038233 7.67791897 -2.15567916 4.09918517 0 0 Z " fill="#024EF1" transform="translate(267,279)"/>
<path d="M0 0 C3.3 0 6.6 0 10 0 C10.33 1.32 10.66 2.64 11 4 C10.34 4 9.68 4 9 4 C9 3.01 9 2.02 9 1 C6.69 1 4.38 1 2 1 C2 10.9 2 20.8 2 31 C3.98 31 5.96 31 8 31 C8 24.4 8 17.8 8 11 C8.66 11 9.32 11 10 11 C10 18.26 10 25.52 10 33 C6.7 33 3.4 33 0 33 C0 22.11 0 11.22 0 0 Z " fill="#3769D6" transform="translate(175,272)"/>
<path d="M0 0 C0.680625 0.66 1.36125 1.32 2.0625 2 C5.70942609 4.48301351 7.66565556 4.47283757 12 4 C14.35369807 3.11935073 14.35369807 3.11935073 16 2 C14.86695008 5.39914975 13.87481525 6.05254451 11 8 C12.32 8.66 13.64 9.32 15 10 C10.44853747 12.66427075 7.2699494 13.64718677 2 13 C-1.80061695 11.54244381 -4.50640204 9.64784732 -7 6.375 C-7.495 5.199375 -7.495 5.199375 -8 4 C-7.67 3.34 -7.34 2.68 -7 2 C-6.67 2.99 -6.34 3.98 -6 5 C-4.68 4.67 -3.36 4.34 -2 4 C-1.67 4.66 -1.34 5.32 -1 6 C-1.66 6 -2.32 6 -3 6 C-1.71034824 7.37562854 -0.37310707 8.70766393 1 10 C1.66 10 2.32 10 3 10 C2.67 8.02 2.34 6.04 2 4 C1.34 4 0.68 4 0 4 C0 2.68 0 1.36 0 0 Z " fill="#0D50E2" transform="translate(287,292)"/>
<path d="M0 0 C3.3 0 6.6 0 10 0 C10 14.85 10 29.7 10 45 C9.67 45 9.34 45 9 45 C8.34479743 30.65873091 7.83497515 16.35716167 8 2 C5.69 2 3.38 2 1 2 C1 7.61 1 13.22 1 19 C-5.27 19 -11.54 19 -18 19 C-18 18.67 -18 18.34 -18 18 C-12.06 18 -6.12 18 0 18 C0 12.06 0 6.12 0 0 Z " fill="#497AE5" transform="translate(116,259)"/>
<path d="M0 0 C1.11761719 0.01804687 2.23523438 0.03609375 3.38671875 0.0546875 C6.1337003 0.10164445 8.87890047 0.16730532 11.625 0.25 C11.625 0.58 11.625 0.91 11.625 1.25 C9.6891649 1.61315666 7.75124752 1.96522731 5.8125 2.3125 C4.73355469 2.50972656 3.65460938 2.70695312 2.54296875 2.91015625 C-0.375 3.25 -0.375 3.25 -3.375 2.25 C-8.31020147 1.87498339 -8.31020147 1.87498339 -12.8125 3.625 C-14.60603624 5.11455501 -14.60603624 5.11455501 -14.375 7.25 C-14.05697057 8.91965451 -13.72515049 10.58678518 -13.375 12.25 C-14.035 12.25 -14.695 12.25 -15.375 12.25 C-15.705 13.24 -16.035 14.23 -16.375 15.25 C-18.025 14.92 -19.675 14.59 -21.375 14.25 C-21.375 16.56 -21.375 18.87 -21.375 21.25 C-21.705 21.25 -22.035 21.25 -22.375 21.25 C-22.99554002 11.56268081 -22.99554002 11.56268081 -20.75 6.8125 C-14.2163865 -0.23692509 -9.35941784 -0.28662528 0 0 Z " fill="#014FED" transform="translate(300.375,271.75)"/>
<path d="M0 0 C0.99 0 1.98 0 3 0 C3 1.65 3 3.3 3 5 C7.95 5 12.9 5 18 5 C18 5.66 18 6.32 18 7 C15.69 7 13.38 7 11 7 C11 7.99 11 8.98 11 10 C13.97 10 16.94 10 20 10 C20 10.66 20 11.32 20 12 C12.74 12 5.48 12 -2 12 C-2 11.34 -2 10.68 -2 10 C1.3 10 4.6 10 8 10 C8 9.01 8 8.02 8 7 C5.36 7 2.72 7 0 7 C0 4.69 0 2.38 0 0 Z " fill="#898989" transform="translate(250,327)"/>
<path d="M0 0 C4.29 0 8.58 0 13 0 C13 2.31 13 4.62 13 7 C9.7 7 6.4 7 3 7 C3 7.99 3 8.98 3 10 C6.96 10 10.92 10 15 10 C15 10.66 15 11.32 15 12 C10.38 12 5.76 12 1 12 C1 9.69 1 7.38 1 5 C3.97 5 6.94 5 10 5 C10 4.34 10 3.68 10 3 C6.7 3 3.4 3 0 3 C0 2.01 0 1.02 0 0 Z " fill="#8D8D8D" transform="translate(130,327)"/>
<path d="M0 0 C1.32 0 2.64 0 4 0 C4 2.97 4 5.94 4 9 C4.99 9 5.98 9 7 9 C7 9.99 7 10.98 7 12 C6.01 12 5.02 12 4 12 C4 15.63 4 19.26 4 23 C2.68 23 1.36 23 0 23 C0 15.41 0 7.82 0 0 Z " fill="#9B9B9B" transform="translate(122,327)"/>
<path d="M0 0 C0.99 0 1.98 0 3 0 C3 0.66 3 1.32 3 2 C4.98 2 6.96 2 9 2 C9 2.99 9 3.98 9 5 C8.01 5.495 8.01 5.495 7 6 C7.33 6.33 7.66 6.66 8 7 C8.125 9.5 8.125 9.5 8 12 C7 13 7 13 5.15234375 13.09765625 C3.1015625 13.06510417 1.05078125 13.03255208 -1 13 C-1 12.67 -1 12.34 -1 12 C0.98 11.34 2.96 10.68 5 10 C5 9.67 5 9.34 5 9 C2.69 8.67 0.38 8.34 -2 8 C-2.33 8.66 -2.66 9.32 -3 10 C-3 8.68 -3 7.36 -3 6 C-3.66 5.67 -4.32 5.34 -5 5 C-5 4.01 -5 3.02 -5 2 C-3.35 2 -1.7 2 0 2 C0 1.34 0 0.68 0 0 Z " fill="#9A9A9A" transform="translate(171,326)"/>
<path d="M0 0 C3.71599191 -0.20086443 4.77208445 -0.1519437 8 2 C8 1.34 8 0.68 8 0 C10.97 0 13.94 0 17 0 C17 10.56 17 21.12 17 32 C14.03 32 11.06 32 8 32 C8 31.67 8 31.34 8 31 C10.31 31 12.62 31 15 31 C15 21.1 15 11.2 15 1 C13.02 1 11.04 1 9 1 C9 1.66 9 2.32 9 3 C6.69 3 4.38 3 2 3 C2 2.34 2 1.68 2 1 C1.34 0.67 0.68 0.34 0 0 Z " fill="#0E46C7" transform="translate(214,272)"/>
<path d="M0 0 C0 0.33 0 0.66 0 1 C-1.98 1 -3.96 1 -6 1 C-6.33 2.65 -6.66 4.3 -7 6 C-7.94875 6.268125 -8.8975 6.53625 -9.875 6.8125 C-13.25267273 7.74986588 -13.25267273 7.74986588 -15 11 C-15.66 11 -16.32 11 -17 11 C-17 19.58 -17 28.16 -17 37 C-17.33 37 -17.66 37 -18 37 C-18.17543584 32.66718453 -18.28123984 28.33529136 -18.375 24 C-18.42527344 22.77925781 -18.47554687 21.55851562 -18.52734375 20.30078125 C-18.6411268 13.28415957 -18.28435085 8.81207058 -13.53735352 3.45922852 C-8.89065503 -0.95133474 -6.30534922 -1.35997728 0 0 Z " fill="#1253DD" transform="translate(238,94)"/>
<path d="M0 0 C4.875 0.875 4.875 0.875 6 2 C6.23961213 6.23314767 6.32488647 9.36736489 4 13 C2.125 12.6875 2.125 12.6875 0 12 C-2.31332486 8.53001271 -2.33957563 7.07490752 -2 3 C-1.34 2.01 -0.68 1.02 0 0 Z " fill="#F5F5F5" transform="translate(277,331)"/>
<path d="M0 0 C0 1.98 0 3.96 0 6 C0.66 6 1.32 6 2 6 C2.80967438 8.91482778 3.21845993 10.46113217 2.0625 13.3125 C1.5365625 14.1478125 1.5365625 14.1478125 1 15 C0.01 15 -0.98 15 -2 15 C-2 13.35 -2 11.7 -2 10 C-2.66 10 -3.32 10 -4 10 C-5.60355101 6.49223216 -6.22036864 3.85645121 -6 0 C-3 -1 -3 -1 0 0 Z " fill="#024EF0" transform="translate(139,286)"/>
<path d="M0 0 C3.63 0 7.26 0 11 0 C11 0.66 11 1.32 11 2 C8.03 2 5.06 2 2 2 C2 5.96 2 9.92 2 14 C5.96 14 9.92 14 14 14 C14 14.66 14 15.32 14 16 C9.38 16 4.76 16 0 16 C0 10.72 0 5.44 0 0 Z " fill="#7E7E7E" transform="translate(220,329)"/>
<path d="M0 0 C1.36125 0.12375 1.36125 0.12375 2.75 0.25 C2.75 2.89 2.75 5.53 2.75 8.25 C-2.2 9.735 -2.2 9.735 -7.25 11.25 C-7.25 10.26 -7.25 9.27 -7.25 8.25 C-6.59 7.92 -5.93 7.59 -5.25 7.25 C-5.91 6.26 -6.57 5.27 -7.25 4.25 C-4.83923194 1.28290085 -3.90322061 0.30024774 0 0 Z " fill="#0E51DC" transform="translate(192.25,271.75)"/>
<path d="M0 0 C0.97591583 3.38317487 0.85856655 5.5657338 0 9 C-0.66 9 -1.32 9 -2 9 C-3.34919532 10.65385233 -4.68133728 12.321702 -6 14 C-6.99 14.66 -7.98 15.32 -9 16 C-9.2165625 17.2375 -9.2165625 17.2375 -9.4375 18.5 C-10 21 -10 21 -12.0625 22.3125 C-12.701875 22.539375 -13.34125 22.76625 -14 23 C-14 22.34 -14 21.68 -14 21 C-14.66 20.67 -15.32 20.34 -16 20 C-15.030625 19.113125 -14.06125 18.22625 -13.0625 17.3125 C-7.8785406 12.17103207 -4.01795922 6.0588274 0 0 Z " fill="#689EE9" transform="translate(217,136)"/>
<path d="M0 0 C0.99 0 1.98 0 3 0 C3 7.59 3 15.18 3 23 C2.01 23 1.02 23 0 23 C0 15.41 0 7.82 0 0 Z " fill="#8C8C8C" transform="translate(290,327)"/>
<path d="M0 0 C0.99 0 1.98 0 3 0 C3 7.59 3 15.18 3 23 C2.01 23 1.02 23 0 23 C0 15.41 0 7.82 0 0 Z " fill="#8C8C8C" transform="translate(208,327)"/>
<path d="M0 0 C3.63 0 7.26 0 11 0 C9.515 1.485 9.515 1.485 8 3 C7.01 3 6.02 3 5 3 C4.95101562 3.67546875 4.90203125 4.3509375 4.8515625 5.046875 C4.77679688 5.93890625 4.70203125 6.8309375 4.625 7.75 C4.55539063 8.63171875 4.48578125 9.5134375 4.4140625 10.421875 C4.00149945 12.99066382 3.28839043 14.75841015 2 17 C1.01 17 0.02 17 -1 17 C-0.01 12.38 0.98 7.76 2 3 C1.34 3 0.68 3 0 3 C0 2.01 0 1.02 0 0 Z " fill="#979797" transform="translate(190,328)"/>
<path d="M0 0 C1.05074707 0.00249756 2.10149414 0.00499512 3.18408203 0.00756836 C5.19284424 0.02122437 5.19284424 0.02122437 7.2421875 0.03515625 C11.4909375 0.05578125 15.7396875 0.07640625 20.1171875 0.09765625 C20.1171875 10.98765625 20.1171875 21.87765625 20.1171875 33.09765625 C19.7871875 33.09765625 19.4571875 33.09765625 19.1171875 33.09765625 C19.1171875 22.53765625 19.1171875 11.97765625 19.1171875 1.09765625 C16.1471875 1.09765625 13.1771875 1.09765625 10.1171875 1.09765625 C10.1171875 1.75765625 10.1171875 2.41765625 10.1171875 3.09765625 C9.1271875 2.76765625 8.1371875 2.43765625 7.1171875 2.09765625 C5.11898022 2.00329646 3.11761547 1.96775324 1.1171875 1.97265625 C0.0653125 1.97007812 -0.9865625 1.9675 -2.0703125 1.96484375 C-4.96408128 1.9741199 -4.96408128 1.9741199 -7.8828125 3.09765625 C-7.8828125 2.43765625 -7.8828125 1.77765625 -7.8828125 1.09765625 C-5.16879956 -0.25935022 -3.03434934 -0.01472985 0 0 Z " fill="#CCE5FD" transform="translate(211.8828125,270.90234375)"/>
<path d="M0 0 C0.66 0 1.32 0 2 0 C2.391875 1.11375 2.78375 2.2275 3.1875 3.375 C4.42482967 6.31960666 4.73606497 6.85882545 7.6875 8.4375 C8.450625 8.623125 9.21375 8.80875 10 9 C10 9.66 10 10.32 10 11 C11.2065625 10.7215625 11.2065625 10.7215625 12.4375 10.4375 C16.78253084 9.90389972 20.68989724 10.3774296 25 11 C25 10.34 25 9.68 25 9 C26.32 9.33 27.64 9.66 29 10 C23.35480295 13.7634647 17.63138851 13.78330495 11 13 C6.61273336 11.68616614 3.90966519 9.26528418 1.5625 5.375 C0 2 0 2 0 0 Z " fill="#0E4BD0" transform="translate(145,224)"/>
<path d="M0 0 C2.74303956 1.05960224 4.59949697 2.25417961 7 4 C3.35202603 5.21599132 2.20645737 4.3327695 -1.1484375 2.76953125 C-3.70581326 1.70665567 -6.26322257 1.33375334 -9 1 C-9 1.66 -9 2.32 -9 3 C-10.7015625 3.433125 -10.7015625 3.433125 -12.4375 3.875 C-13.613125 4.24625 -14.78875 4.6175 -16 5 C-16.33 5.66 -16.66 6.32 -17 7 C-17.66 7 -18.32 7 -19 7 C-19.103125 7.598125 -19.20625 8.19625 -19.3125 8.8125 C-20.08876455 11.28243264 -21.07088921 12.32251235 -23 14 C-22.56460604 9.06553512 -20.36703914 6.52008638 -17 3 C-11.57371516 -0.89037032 -6.47188004 -0.81111953 0 0 Z " fill="#2860D8" transform="translate(168,136)"/>
<path d="M0 0 C3.96 0 7.92 0 12 0 C12 1.65 12 3.3 12 5 C8.04 5 4.08 5 0 5 C0 3.35 0 1.7 0 0 Z " fill="#BCBCBC" transform="translate(171,343)"/>
<path d="M0 0 C0.66 0 1.32 0 2 0 C2 7.59 2 15.18 2 23 C1.34 23 0.68 23 0 23 C0 18.71 0 14.42 0 10 C-2.31 10 -4.62 10 -7 10 C-7 9.34 -7 8.68 -7 8 C-4.69 8 -2.38 8 0 8 C0 5.36 0 2.72 0 0 Z " fill="#7E7E7E" transform="translate(237,327)"/>
<path d="M0 0 C3.3 0 6.6 0 10 0 C10.33 0.66 10.66 1.32 11 2 C11.99 1.34 12.98 0.68 14 0 C16.69921875 -0.1953125 16.69921875 -0.1953125 19.6875 -0.125 C21.17830078 -0.09792969 21.17830078 -0.09792969 22.69921875 -0.0703125 C23.45847656 -0.04710937 24.21773438 -0.02390625 25 0 C25 0.33 25 0.66 25 1 C23.95199219 1.05607422 23.95199219 1.05607422 22.8828125 1.11328125 C21.51769531 1.21189453 21.51769531 1.21189453 20.125 1.3125 C18.76761719 1.39951172 18.76761719 1.39951172 17.3828125 1.48828125 C14.63778399 1.7882039 14.63778399 1.7882039 13 5 C14.60875 4.87625 14.60875 4.87625 16.25 4.75 C20 5 20 5 22.4375 7 C23.2109375 7.99 23.2109375 7.99 24 9 C21 9 21 9 19 8 C16.6670134 7.95977609 14.33293334 7.95679753 12 8 C12 7.01 12 6.02 12 5 C11.01 4.67 10.02 4.34 9 4 C9 3.01 9 2.02 9 1 C6.03 1 3.06 1 0 1 C0 0.67 0 0.34 0 0 Z " fill="#1E58DB" transform="translate(240,272)"/>
<path d="M0 0 C2.46484375 1.52734375 2.46484375 1.52734375 5 4 C5.62890625 7.56640625 5.62890625 7.56640625 5.5625 11.5625 C5.57345703 12.23474609 5.58441406 12.90699219 5.59570312 13.59960938 C5.54871417 16.75413437 5.39708001 18.56135482 3.24609375 20.9375 C-0.48347513 22.70174824 -3.96876234 22.7026928 -8 22 C-10.5625 20 -10.5625 20 -12 18 C-11.67 17.34 -11.34 16.68 -11 16 C-10.2265625 16.99 -10.2265625 16.99 -9.4375 18 C-7.06106423 20.32369446 -7.06106423 20.32369446 -3.4375 20.375 C0.11785744 20.25451357 0.11785744 20.25451357 3 18 C3.58592634 14.88389446 3.58592634 14.88389446 3.6875 11.375 C3.75324219 10.18648438 3.81898438 8.99796875 3.88671875 7.7734375 C3.94279297 6.40058594 3.94279297 6.40058594 4 5 C0.7 4.34 -2.6 3.68 -6 3 C-4 2 -2 1 0 0 Z " fill="#1552D2" transform="translate(218,276)"/>
<path d="M0 0 C1.32 0 2.64 0 4 0 C4 1.65 4 3.3 4 5 C4.99 5 5.98 5 7 5 C7 5.99 7 6.98 7 8 C5.68 8 4.36 8 3 8 C3 9.65 3 11.3 3 13 C2.01 13 1.02 13 0 13 C0 8.71 0 4.42 0 0 Z " fill="#969696" transform="translate(182,327)"/>
<path d="M0 0 C1.23556641 0.01740234 1.23556641 0.01740234 2.49609375 0.03515625 C3.32238281 0.04417969 4.14867187 0.05320312 5 0.0625 C5.63808594 0.07410156 6.27617187 0.08570313 6.93359375 0.09765625 C7.59359375 1.41765625 8.25359375 2.73765625 8.93359375 4.09765625 C7.93359375 5.09765625 7.93359375 5.09765625 5.6484375 5.1953125 C4.27365234 5.17791016 4.27365234 5.17791016 2.87109375 5.16015625 C1.95199219 5.15113281 1.03289062 5.14210938 0.0859375 5.1328125 C-0.62433594 5.12121094 -1.33460938 5.10960937 -2.06640625 5.09765625 C-2.62890625 3.16015625 -2.62890625 3.16015625 -3.06640625 1.09765625 C-2.06640625 0.09765625 -2.06640625 0.09765625 0 0 Z " fill="#F0F0F0" transform="translate(138.06640625,342.90234375)"/>
<path d="M0 0 C0.33 0 0.66 0 1 0 C1 10.56 1 21.12 1 32 C-4.61 32 -10.22 32 -16 32 C-12 29 -12 29 -10 29 C-10 29.66 -10 30.32 -10 31 C-6.7 31 -3.4 31 0 31 C0 20.77 0 10.54 0 0 Z " fill="#F0FEFF" transform="translate(167,273)"/>
<path d="M0 0 C3.3 0.66 6.6 1.32 10 2 C9.67 3.32 9.34 4.64 9 6 C5.37 6 1.74 6 -2 6 C-2.33 5.01 -2.66 4.02 -3 3 C-2.34 3 -1.68 3 -1 3 C-0.67 2.01 -0.34 1.02 0 0 Z " fill="#024EF1" transform="translate(144,297)"/>
<path d="M0 0 C0.66 0 1.32 0 2 0 C2 0.99 2 1.98 2 3 C5.3 3 8.6 3 12 3 C12 3.66 12 4.32 12 5 C4.74 5 -2.52 5 -10 5 C-10 4.34 -10 3.68 -10 3 C-6.7 3 -3.4 3 0 3 C0 2.01 0 1.02 0 0 Z " fill="#7C7C7C" transform="translate(258,334)"/>
<path d="M0 0 C0.99 0.495 0.99 0.495 2 1 C2 1.66 2 2.32 2 3 C3.32 2.67 4.64 2.34 6 2 C6.33 2.66 6.66 3.32 7 4 C6.34 4 5.68 4 5 4 C6.86502588 6.62799102 8.30410791 7.86365751 11.4921875 8.48828125 C13.9964272 8.72593573 16.48653979 8.9040664 19 9 C19 8.34 19 7.68 19 7 C20.32 7.33 21.64 7.66 23 8 C18.44853747 10.66427075 15.2699494 11.64718677 10 11 C5.25792989 9.18139167 2.1031563 6.70117291 0 2 C0 1.34 0 0.68 0 0 Z " fill="#1653D2" transform="translate(279,294)"/>
<path d="M0 0 C4.29 0 8.58 0 13 0 C12.34 1.32 11.68 2.64 11 4 C7.37 4 3.74 4 0 4 C0 2.68 0 1.36 0 0 Z " fill="#014EF2" transform="translate(285,313)"/>
<path d="M0 0 C1.67542976 0.28604898 3.34385343 0.61781233 5 1 C5.625 3.375 5.625 3.375 6 6 C5.34 6.66 4.68 7.32 4 8 C1.375 7.625 1.375 7.625 -1 7 C-1.04254356 5.00045254 -1.04080783 2.99958364 -1 1 C-0.67 0.67 -0.34 0.34 0 0 Z " fill="#FAFAFA" transform="translate(111,336)"/>
<path d="M0 0 C0 0.99 0 1.98 0 3 C-1.65 3.33 -3.3 3.66 -5 4 C-5.33 5.98 -5.66 7.96 -6 10 C-6.99 10.33 -7.98 10.66 -9 11 C-9.8125 8.3125 -9.8125 8.3125 -10 5 C-7.04894235 1.00739259 -5.03011718 -0.71858817 0 0 Z " fill="#969696" transform="translate(116,333)"/>
<path d="M0 0 C1.11761719 0.01804687 2.23523438 0.03609375 3.38671875 0.0546875 C6.1337003 0.10164445 8.87890047 0.16730532 11.625 0.25 C11.625 0.58 11.625 0.91 11.625 1.25 C9.6891649 1.61315666 7.75124752 1.96522731 5.8125 2.3125 C4.73355469 2.50972656 3.65460938 2.70695312 2.54296875 2.91015625 C-0.375 3.25 -0.375 3.25 -3.375 2.25 C-8.71367094 1.84708144 -11.70092158 2.74991154 -16.375 5.25 C-17.035 4.92 -17.695 4.59 -18.375 4.25 C-12.73379115 -0.77760368 -7.28132125 -0.2229851 0 0 Z " fill="#2058D6" transform="translate(300.375,271.75)"/>
<path d="M0 0 C1.64574566 -0.02688151 3.29161413 -0.04634123 4.9375 -0.0625 C5.85402344 -0.07410156 6.77054688 -0.08570313 7.71484375 -0.09765625 C10 0 10 0 11 1 C11.125 3.5 11.125 3.5 11 6 C10 7 10 7 8.15234375 7.09765625 C6.1015625 7.06510417 4.05078125 7.03255208 2 7 C2 6.67 2 6.34 2 6 C3.98 5.34 5.96 4.68 8 4 C8 3.67 8 3.34 8 3 C5.69 2.67 3.38 2.34 1 2 C0.67 2.66 0.34 3.32 0 4 C0 2.68 0 1.36 0 0 Z " fill="#8E8E8E" transform="translate(168,332)"/>
<path d="M0 0 C0.33 0 0.66 0 1 0 C1.10823773 2.24893954 1.18569645 4.49937575 1.25 6.75 C1.29640625 8.00296875 1.3428125 9.2559375 1.390625 10.546875 C1 14 1 14 -0.78515625 16.4609375 C-3 18 -3 18 -6.6875 17.875 C-7.780625 17.58625 -8.87375 17.2975 -10 17 C-10.33 16.34 -10.66 15.68 -11 15 C-10.36191406 14.86722656 -9.72382813 14.73445313 -9.06640625 14.59765625 C-8.24011719 14.42105469 -7.41382813 14.24445313 -6.5625 14.0625 C-5.73878906 13.88847656 -4.91507813 13.71445312 -4.06640625 13.53515625 C-2.02338796 13.19247006 -2.02338796 13.19247006 -1 12 C-0.76572222 9.98405418 -0.58663876 7.961526 -0.4375 5.9375 C-0.35371094 4.83277344 -0.26992187 3.72804688 -0.18359375 2.58984375 C-0.12300781 1.73519531 -0.06242188 0.88054687 0 0 Z " fill="#225BD6" transform="translate(157,282)"/>
<path d="M0 0 C0.66 0.33 1.32 0.66 2 1 C4.3329866 1.04022391 6.66706666 1.04320247 9 1 C9 1.99 9 2.98 9 4 C3.58461538 6.21538462 3.58461538 6.21538462 0.625 5.125 C0.08875 4.75375 -0.4475 4.3825 -1 4 C-0.67 2.68 -0.34 1.36 0 0 Z " fill="#A0A0A0" transform="translate(167,333)"/>
<path d="M0 0 C0 0.99 0 1.98 0 3 C-4.62 3 -9.24 3 -14 3 C-13.37158027 6.9714169 -13.37158027 6.9714169 -11 9 C-12.65 8.67 -14.3 8.34 -16 8 C-16 6.02 -16 4.04 -16 2 C-11.93638892 0.95132617 -8.14852827 0.95062781 -3.98828125 1.0625 C-1.92404786 1.13656189 -1.92404786 1.13656189 0 0 Z " fill="#1F59D5" transform="translate(299,310)"/>
<path d="M0 0 C0.7425 0.2475 1.485 0.495 2.25 0.75 C1.321875 1.1521875 1.321875 1.1521875 0.375 1.5625 C-3.06265936 3.48354494 -3.75025282 5.75082869 -4.875 9.4375 C-5.16375 10.530625 -5.4525 11.62375 -5.75 12.75 C-6.08 12.75 -6.41 12.75 -6.75 12.75 C-7.36832061 4.71183206 -7.36832061 4.71183206 -5.0625 1.125 C-2.75 -0.25 -2.75 -0.25 0 0 Z " fill="#818181" transform="translate(279.75,328.25)"/>
<path d="M0 0 C0.66 0 1.32 0 2 0 C1.67 0.99 1.34 1.98 1 3 C0.34 3 -0.32 3 -1 3 C-3.00925164 9.38232875 -2.99989549 14.40609458 -2 21 C-2.66 21.33 -3.32 21.66 -4 22 C-5.57311738 16.49408918 -6.40214896 10.04496527 -3.953125 4.7265625 C-2.625 2.8125 -2.625 2.8125 0 0 Z " fill="#2057CF" transform="translate(202,275)"/>
<path d="M0 0 C2.31 0 4.62 0 7 0 C6.67 1.65 6.34 3.3 6 5 C4.02 5 2.04 5 0 5 C0 3.35 0 1.7 0 0 Z " fill="#DDDDDD" transform="translate(256,343)"/>
<path d="M0 0 C0.66 0 1.32 0 2 0 C2 1.65 2 3.3 2 5 C3.32 5 4.64 5 6 5 C6 5.66 6 6.32 6 7 C4.68 7 3.36 7 2 7 C2 8.98 2 10.96 2 13 C1.34 13 0.68 13 0 13 C0 8.71 0 4.42 0 0 Z " fill="#808080" transform="translate(147,327)"/>
<path d="M0 0 C0.66 0 1.32 0 2 0 C2 0.99 2 1.98 2 3 C3.98 3 5.96 3 8 3 C8 3.66 8 4.32 8 5 C3.38 5 -1.24 5 -6 5 C-6 4.34 -6 3.68 -6 3 C-4.02 3 -2.04 3 0 3 C0 2.01 0 1.02 0 0 Z " fill="#767676" transform="translate(112,327)"/>
<path d="M0 0 C1.65 0 3.3 0 5 0 C5.12375 1.11375 5.2475 2.2275 5.375 3.375 C5.6465813 7.03103677 5.6465813 7.03103677 8 9 C7.67 9.66 7.34 10.32 7 11 C6.7724985 12.87056791 6.59037189 14.74685958 6.4375 16.625 C6.31181641 18.12933594 6.31181641 18.12933594 6.18359375 19.6640625 C6.12300781 20.43492187 6.06242188 21.20578125 6 22 C5.67 22 5.34 22 5 22 C4.67 15.07 4.34 8.14 4 1 C2.68 0.67 1.36 0.34 0 0 Z " fill="#CBE5FB" transform="translate(191,271)"/>
<path d="M0 0 C3.3 0 6.6 0 10 0 C10 0.99 10 1.98 10 3 C6.7 3 3.4 3 0 3 C0 2.01 0 1.02 0 0 Z " fill="#FDFDFD" transform="translate(172,344)"/>
<path d="M0 0 C2.511264 3.677208 2.04296638 6.16800433 1.75 10.5625 C0.76 10.2325 -0.23 9.9025 -1.25 9.5625 C-1.37375 7.9228125 -1.37375 7.9228125 -1.5 6.25 C-1.88689209 2.52973336 -1.88689209 2.52973336 -4.3125 0.625 C-4.951875 0.274375 -5.59125 -0.07625 -6.25 -0.4375 C-3.43034835 -1.64592214 -2.6426016 -1.6883288 0 0 Z " fill="#989898" transform="translate(284.25,330.4375)"/>
<path d="M0 0 C0.66 0 1.32 0 2 0 C2.391875 1.11375 2.78375 2.2275 3.1875 3.375 C4.42482967 6.31960666 4.73606497 6.85882545 7.6875 8.4375 C8.450625 8.623125 9.21375 8.80875 10 9 C10 9.66 10 10.32 10 11 C10.99 11 11.98 11 13 11 C13 11.66 13 12.32 13 13 C8.00354754 11.72183774 5.27312765 10.00048935 2 6 C0.6875 2.6875 0.6875 2.6875 0 0 Z " fill="#215BD4" transform="translate(145,224)"/>
<path d="M0 0 C2.6015625 -0.29296875 2.6015625 -0.29296875 5.625 -0.1875 C7.12933594 -0.14689453 7.12933594 -0.14689453 8.6640625 -0.10546875 C9.43492187 -0.07066406 10.20578125 -0.03585937 11 0 C11 0.66 11 1.32 11 2 C9.39602723 2.16852247 7.7918131 2.33474886 6.1875 2.5 C5.29417969 2.5928125 4.40085938 2.685625 3.48046875 2.78125 C1 3 1 3 -2 3 C-1.34 2.01 -0.68 1.02 0 0 Z " fill="#828282" transform="translate(135,341)"/>
<path d="M0 0 C1.43655854 -0.08131463 2.8744483 -0.13933559 4.3125 -0.1875 C5.51326172 -0.23970703 5.51326172 -0.23970703 6.73828125 -0.29296875 C9 0 9 0 12 3 C8.04 3 4.08 3 0 3 C0 2.01 0 1.02 0 0 Z " fill="#E6E6E6" transform="translate(133,334)"/>
<path d="M0 0 C3.71599191 -0.20086443 4.77208445 -0.1519437 8 2 C8 1.34 8 0.68 8 0 C10.64 0 13.28 0 16 0 C16 0.33 16 0.66 16 1 C13.69 1 11.38 1 9 1 C9 1.66 9 2.32 9 3 C6.69 3 4.38 3 2 3 C2 2.34 2 1.68 2 1 C1.34 0.67 0.68 0.34 0 0 Z " fill="#1B5AD9" transform="translate(214,272)"/>
<path d="M0 0 C0.33 0.99 0.66 1.98 1 3 C3.97 3 6.94 3 10 3 C10 3.33 10 3.66 10 4 C4.72 4 -0.56 4 -6 4 C-4 2.66666667 -2 1.33333333 0 0 Z " fill="#CAE2FD" transform="translate(221,301)"/>
<path d="M0 0 C2.0625 0.4375 2.0625 0.4375 4 1 C3.34 2.65 2.68 4.3 2 6 C1.67 5.34 1.34 4.68 1 4 C-0.32 4.33 -1.64 4.66 -3 5 C-1.125 1.125 -1.125 1.125 0 0 Z " fill="#1256E3" transform="translate(156,298)"/>
<path d="M0 0 C0.33 0.66 0.66 1.32 1 2 C0.71125 2.680625 0.4225 3.36125 0.125 4.0625 C-1.37758566 7.98591812 -1.65525949 11.83589751 -2 16 C-2.33 16 -2.66 16 -3 16 C-3.55353075 4.29384966 -3.55353075 4.29384966 0 0 Z " fill="#2961D7" transform="translate(281,277)"/>
<path d="M0 0 C0 0.66 0 1.32 0 2 C2.97 2 5.94 2 9 2 C9 2.33 9 2.66 9 3 C4.05 3 -0.9 3 -6 3 C-2 0 -2 0 0 0 Z " fill="#CFE6FE" transform="translate(157,302)"/>
<path d="M0 0 C2.475 0.495 2.475 0.495 5 1 C5 5.29 5 9.58 5 14 C4.67 14 4.34 14 4 14 C3.96261719 13.24074219 3.92523438 12.48148437 3.88671875 11.69921875 C3.82097656 10.70535156 3.75523437 9.71148437 3.6875 8.6875 C3.62949219 7.70136719 3.57148438 6.71523438 3.51171875 5.69921875 C2.95377187 2.75615543 2.31459868 1.81817001 0 0 Z " fill="#094BD7" transform="translate(154,279)"/>
<path d="M0 0 C1.98 0 3.96 0 6 0 C6 0.99 6 1.98 6 3 C4.02 3 2.04 3 0 3 C0 2.01 0 1.02 0 0 Z " fill="#FBFBFB" transform="translate(170,334)"/>
<path d="M0 0 C3 1 3 1 4.16796875 2.84765625 C4.50441406 3.57855469 4.84085938 4.30945313 5.1875 5.0625 C5.53167969 5.79597656 5.87585938 6.52945313 6.23046875 7.28515625 C6.48441406 7.85105469 6.73835937 8.41695312 7 9 C6.01 9 5.02 9 4 9 C3.566875 7.88625 3.566875 7.88625 3.125 6.75 C2.17697356 4.43260203 1.15154089 2.22082885 0 0 Z " fill="#1F57D6" transform="translate(249,97)"/>
<path d="M0 0 C0.5625 1.9375 0.5625 1.9375 1 4 C0 5 0 5 -1.84765625 5.09765625 C-3.8984375 5.06510417 -5.94921875 5.03255208 -8 5 C-8 4.67 -8 4.34 -8 4 C-6.576875 3.566875 -6.576875 3.566875 -5.125 3.125 C-1.94788422 2.23174891 -1.94788422 2.23174891 0 0 Z " fill="#7F7F7F" transform="translate(178,334)"/>
<path d="M0 0 C0.33 0 0.66 0 1 0 C1.12375 0.94875 1.2475 1.8975 1.375 2.875 C1.71687177 6.08667191 1.71687177 6.08667191 4 8 C2.35 7.67 0.7 7.34 -1 7 C-1.04254356 5.00045254 -1.04080783 2.99958364 -1 1 C-0.67 0.67 -0.34 0.34 0 0 Z " fill="#3666D0" transform="translate(284,311)"/>
<path d="M0 0 C0.99 0 1.98 0 3 0 C3 1.65 3 3.3 3 5 C1.02 5.99 1.02 5.99 -1 7 C-0.67 4.69 -0.34 2.38 0 0 Z " fill="#8C8C8C" transform="translate(155,346)"/>
<path d="M0 0 C0.33 0.66 0.66 1.32 1 2 C1.66 2.33 2.32 2.66 3 3 C2.34 4.32 1.68 5.64 1 7 C0.01 6.67 -0.98 6.34 -2 6 C-1.34 4.02 -0.68 2.04 0 0 Z " fill="#8B8B8B" transform="translate(197,339)"/>
<path d="M0 0 C1.4606285 2.64738916 2 3.89448334 2 7 C-0.475 6.01 -0.475 6.01 -3 5 C-2.34 4.67 -1.68 4.34 -1 4 C-0.34786708 1.97536745 -0.34786708 1.97536745 0 0 Z " fill="#1557E2" transform="translate(141,297)"/>
<path d="M0 0 C2.125 0.375 2.125 0.375 4 1 C2.824375 1.928125 2.824375 1.928125 1.625 2.875 C-0.96837647 4.89858661 -0.96837647 4.89858661 -3 7 C-2.25 2.25 -2.25 2.25 0 0 Z " fill="#EDFBFF" transform="translate(291,280)"/>
<path d="M0 0 C1.65 0 3.3 0 5 0 C0.25 4.875 0.25 4.875 -2 6 C-1.34 4.02 -0.68 2.04 0 0 Z " fill="#E9F6FF" transform="translate(149,93)"/>
<path d="M0 0 C4.33168317 -0.26252625 7.8803623 0.70756464 12 2 C12 2.33 12 2.66 12 3 C4.61538462 3.36923077 4.61538462 3.36923077 1.5 1.5 C1.005 1.005 0.51 0.51 0 0 Z " fill="#245BD5" transform="translate(229,81)"/>
</svg>
