<?xml version="1.0" encoding="UTF-8"?>
<svg version="1.1" xmlns="http://www.w3.org/2000/svg" viewBox="170 45 160 265">
<path d="M0 0 C6.43635119 3.90333556 10.5184873 9.33207498 12.5625 16.5 C12.82256222 19.49048996 12.82256222 19.49048996 12.83665466 22.69696045 C12.84662979 23.91922333 12.85660492 25.14148621 12.86688232 26.40078735 C12.86777798 27.74212633 12.86844162 29.08346549 12.86889648 30.42480469 C12.87652427 31.84787427 12.88495284 33.27093974 12.89411926 34.69400024 C12.91601171 38.54957337 12.9248562 42.40506721 12.92994571 46.26069546 C12.93359589 48.67329019 12.93983942 51.08586437 12.9469471 53.49845123 C12.97142457 61.92606005 12.98448954 70.35360747 12.98803711 78.78125 C12.99166976 86.61912461 13.0215499 94.45660701 13.06344169 102.29436183 C13.09821176 109.03769661 13.11358672 115.78090185 13.11428314 122.52432561 C13.11507376 126.54554346 13.1237122 130.56636158 13.15228081 134.58748627 C13.17857689 138.37324099 13.18060338 142.15826786 13.16462517 145.94407272 C13.16196425 147.98179474 13.18391596 150.01950333 13.20681763 152.05709839 C13.14491083 159.87842621 12.20242259 166.03601426 7.5625 172.5 C1.99217943 177.949555 -3.47919515 180.11065854 -11.25 180.875 C-17.33263033 180.66281522 -22.97926296 178.66850007 -27.55859375 174.62890625 C-32.24079227 169.4794613 -34.65698156 165.0468954 -34.75634766 157.9753418 C-34.77621735 156.89459885 -34.79608704 155.8138559 -34.81655884 154.70036316 C-34.82811005 153.5449855 -34.83966125 152.38960785 -34.8515625 151.19921875 C-34.87092865 150.00770706 -34.8902948 148.81619537 -34.9102478 147.58857727 C-34.96995896 143.78829068 -35.01639581 139.98797366 -35.0625 136.1875 C-35.1006875 133.60871085 -35.13973968 131.02993435 -35.1796875 128.45117188 C-35.27565369 122.13422698 -35.36072616 115.81720572 -35.4375 109.5 C-36.14382568 110.02964355 -36.85015137 110.55928711 -37.57788086 111.10498047 C-42.87928405 115.02958795 -48.05826908 118.74667492 -54 121.625 C-54.65548828 121.94919922 -55.31097656 122.27339844 -55.98632812 122.60742188 C-63.84853222 126.36503867 -72.1190759 128.9582593 -80.4375 131.5 C-80.4468457 132.39195068 -80.45619141 133.28390137 -80.46582031 134.20288086 C-80.51016718 137.55259097 -80.57192503 140.90108409 -80.64501953 144.25024414 C-80.67302463 145.69218472 -80.69433968 147.13427298 -80.70849609 148.57641602 C-80.89426872 166.44154997 -80.89426872 166.44154997 -87.08227539 173.33129883 C-92.34034881 178.38784609 -98.20562496 180.60920367 -105.4375 180.875 C-112.51407163 180.63585319 -118.31432278 178.48086674 -123.4375 173.5 C-127.95248296 167.35460652 -128.59155304 162.93588475 -128.61450195 155.47387695 C-128.62435875 154.08798119 -128.62435875 154.08798119 -128.63441467 152.67408752 C-128.654147 149.61215128 -128.66581105 146.55026411 -128.67578125 143.48828125 C-128.67985678 142.44189169 -128.6839323 141.39550213 -128.68813133 140.31740379 C-128.70899323 134.77744112 -128.72329363 129.23750322 -128.73266602 123.69750977 C-128.74372192 117.98221439 -128.77811231 112.26730925 -128.81783772 106.55215168 C-128.84401657 102.15198556 -128.85235907 97.75191218 -128.85594749 93.35167503 C-128.86081127 91.24540768 -128.87241927 89.1391444 -128.89098549 87.03295326 C-128.91540022 84.07935552 -128.9144073 81.12676401 -128.9074707 78.1730957 C-128.92028076 77.30890015 -128.93309082 76.44470459 -128.94628906 75.55432129 C-128.88904245 68.84002791 -127.21139116 63.4086551 -122.5078125 58.4765625 C-114.98744817 53.25157042 -108.63149757 51.50259832 -99.4375 52.5 C-92.35086142 54.27446735 -87.36518125 58.38543806 -83.4375 64.5 C-81.08058097 69.83702343 -81.00903701 75.13448156 -80.8125 80.875 C-80.75449219 82.26525391 -80.75449219 82.26525391 -80.6953125 83.68359375 C-80.60162409 85.9555377 -80.51590652 88.22748596 -80.4375 90.5 C-59.96195448 81.07148657 -46.15117963 68.623284 -36.34619141 48.23022461 C-35.23436095 44.88965502 -35.21467369 42.10129503 -35.234375 38.58203125 C-35.22381875 37.23111021 -35.21206095 35.88019812 -35.19921875 34.52929688 C-35.18896348 32.42721102 -35.18736682 30.32639107 -35.20751953 28.22436523 C-35.27472497 19.03347916 -34.61925175 11.7497839 -28.4375 4.5 C-20.94432345 -2.32846731 -9.43147759 -4.21445948 0 0 Z " fill="#0050F2" transform="translate(308.4375,117.5)"/>
<path d="M0 0 C5.80162771 3.91145522 9.25067174 8.68428402 11.07421875 15.3984375 C11.36100915 18.39438907 11.36805265 21.37399568 11.36474609 24.38208008 C11.37146332 25.26582809 11.37818054 26.14957611 11.38510132 27.06010437 C11.40404233 29.97111694 11.40800361 32.88189845 11.41015625 35.79296875 C11.41658709 37.82549635 11.42331566 39.85802303 11.43032837 41.89054871 C11.44229154 46.14816432 11.4460102 50.40569885 11.44482422 54.66333008 C11.44462114 60.10383454 11.4719169 65.54381603 11.50636864 70.98419666 C11.52866854 75.18196474 11.5326608 79.37960759 11.53160477 83.57742882 C11.53395631 85.58238209 11.54275451 87.58733904 11.5582695 89.59223366 C11.57799115 92.40405931 11.5720672 95.21476545 11.56005859 98.02661133 C11.57129761 98.84509552 11.58253662 99.66357971 11.59411621 100.50686646 C11.52283737 107.11564692 9.89446869 113.21554422 5.42841148 118.25587177 C0.12772978 123.27031468 -5.68078736 125.50715901 -12.92578125 125.7734375 C-20.00235288 125.53429069 -25.80260403 123.37930424 -30.92578125 118.3984375 C-35.44076421 112.25304402 -36.07983429 107.83432225 -36.1027832 100.37231445 C-36.1093544 99.44838394 -36.1159256 98.52445343 -36.12269592 97.57252502 C-36.14242825 94.51058878 -36.1540923 91.44870161 -36.1640625 88.38671875 C-36.16813803 87.34032919 -36.17221355 86.29393963 -36.17641258 85.21584129 C-36.19727448 79.67587862 -36.21157488 74.13594072 -36.22094727 68.59594727 C-36.23200317 62.88065189 -36.26639356 57.16574675 -36.30611897 51.45058918 C-36.33229782 47.05042306 -36.34064032 42.65034968 -36.34422874 38.25011253 C-36.34909252 36.14384518 -36.36070052 34.0375819 -36.37926674 31.93139076 C-36.40368147 28.97779302 -36.40268855 26.02520151 -36.39575195 23.0715332 C-36.40856201 22.20733765 -36.42137207 21.34314209 -36.43457031 20.45275879 C-36.3773237 13.73846541 -34.69967241 8.3070926 -29.99609375 3.375 C-20.72654189 -3.06529105 -10.50801557 -5.32003661 0 0 Z " fill="#0050F2" transform="translate(215.92578125,172.6015625)"/>
<path d="M0 0 C0.33 0 0.66 0 1 0 C1.23244039 8.07564324 1.40973972 16.14987388 1.51812172 24.2280426 C1.5701615 27.97989616 1.64063963 31.72945047 1.75439453 35.47998047 C1.86363698 39.10471883 1.92295545 42.72725745 1.94877243 46.35351562 C1.96714974 47.73163488 2.0030433 49.10964301 2.05730057 50.48681641 C2.46401742 61.24522037 2.46401742 61.24522037 -1.16905212 65.59983826 C-3.6925843 67.64688914 -6.19838599 69.3604647 -9 71 C-9.61920822 71.4070668 -10.23841644 71.81413361 -10.87638855 72.23353577 C-19.91030642 78.01529354 -35.1474949 86 -46 86 C-46 72.8 -46 59.6 -46 46 C-40.39 43.03 -34.78 40.06 -29 37 C-15.75081011 27.16554977 -5.79869353 15.58032808 0 0 Z " fill="#629FF5" transform="translate(273,163)"/>
<path d="M0 0 C5.0717571 4.31366288 8.55814084 9.90666581 9.28125 16.60546875 C9.51052875 23.53159772 8.85778479 29.41333576 4.453125 34.94140625 C-0.48445228 40.1739273 -5.4484498 43.34709674 -12.796875 43.9921875 C-20.01335666 44.01777786 -25.71282238 42.32362382 -31.30859375 37.72265625 C-33.91870231 35.06432397 -35.38742157 32.35416313 -37 29 C-37.33 28.34 -37.66 27.68 -38 27 C-38.6325427 19.09840097 -39.15964542 11.44235056 -34 5 C-24.47904272 -5.18945003 -12.22292024 -7.1775352 0 0 Z " fill="#0050F2" transform="translate(312,62)"/>
<path d="M0 0 C4.90377892 2.93397343 9.45682912 7.43520138 11.40234375 12.90234375 C12.90631983 20.34306752 13.11037163 27.79376941 9.47265625 34.60546875 C5.86247703 39.69330272 1.77499117 43.07142352 -4.15234375 45.10546875 C-11.0933864 46.10373106 -18.25108573 46.23671555 -24.40625 42.50390625 C-30.50697152 37.61786977 -34.53428025 32.52210857 -35.43359375 24.640625 C-35.87363531 16.79688415 -33.94902589 10.4549645 -28.73046875 4.4765625 C-20.79663958 -2.66814925 -9.75284399 -4.2656176 0 0 Z " fill="#0050F2" transform="translate(214.15234375,116.89453125)"/>
</svg>
