<?xml version="1.0" encoding="UTF-8"?>
<svg version="1.1" xmlns="http://www.w3.org/2000/svg" width="500" height="501">
<path d="M0 0 C6.43635119 3.90333556 10.5184873 9.33207498 12.5625 16.5 C12.82256222 19.49048996 12.82256222 19.49048996 12.83665466 22.69696045 C12.84662979 23.91922333 12.85660492 25.14148621 12.86688232 26.40078735 C12.86777798 27.74212633 12.86844162 29.08346549 12.86889648 30.42480469 C12.87652427 31.84787427 12.88495284 33.27093974 12.89411926 34.69400024 C12.91601171 38.54957337 12.9248562 42.40506721 12.92994571 46.26069546 C12.93359589 48.67329019 12.93983942 51.08586437 12.9469471 53.49845123 C12.97142457 61.92606005 12.98448954 70.35360747 12.98803711 78.78125 C12.99166976 86.61912461 13.0215499 94.45660701 13.06344169 102.29436183 C13.09821176 109.03769661 13.11358672 115.78090185 13.11428314 122.52432561 C13.11507376 126.54554346 13.1237122 130.56636158 13.15228081 134.58748627 C13.17857689 138.37324099 13.18060338 142.15826786 13.16462517 145.94407272 C13.16196425 147.98179474 13.18391596 150.01950333 13.20681763 152.05709839 C13.14491083 159.87842621 12.20242259 166.03601426 7.5625 172.5 C1.99217943 177.949555 -3.47919515 180.11065854 -11.25 180.875 C-17.33263033 180.66281522 -22.97926296 178.66850007 -27.55859375 174.62890625 C-32.24079227 169.4794613 -34.65698156 165.0468954 -34.75634766 157.9753418 C-34.77621735 156.89459885 -34.79608704 155.8138559 -34.81655884 154.70036316 C-34.82811005 153.5449855 -34.83966125 152.38960785 -34.8515625 151.19921875 C-34.87092865 150.00770706 -34.8902948 148.81619537 -34.9102478 147.58857727 C-34.96995896 143.78829068 -35.01639581 139.98797366 -35.0625 136.1875 C-35.1006875 133.60871085 -35.13973968 131.02993435 -35.1796875 128.45117188 C-35.27565369 122.13422698 -35.36072616 115.81720572 -35.4375 109.5 C-36.14382568 110.02964355 -36.85015137 110.55928711 -37.57788086 111.10498047 C-42.87928405 115.02958795 -48.05826908 118.74667492 -54 121.625 C-54.65548828 121.94919922 -55.31097656 122.27339844 -55.98632812 122.60742188 C-63.84853222 126.36503867 -72.1190759 128.9582593 -80.4375 131.5 C-80.4468457 132.39195068 -80.45619141 133.28390137 -80.46582031 134.20288086 C-80.51016718 137.55259097 -80.57192503 140.90108409 -80.64501953 144.25024414 C-80.67302463 145.69218472 -80.69433968 147.13427298 -80.70849609 148.57641602 C-80.89426872 166.44154997 -80.89426872 166.44154997 -87.08227539 173.33129883 C-92.34034881 178.38784609 -98.20562496 180.60920367 -105.4375 180.875 C-112.51407163 180.63585319 -118.31432278 178.48086674 -123.4375 173.5 C-127.95248296 167.35460652 -128.59155304 162.93588475 -128.61450195 155.47387695 C-128.62435875 154.08798119 -128.62435875 154.08798119 -128.63441467 152.67408752 C-128.654147 149.61215128 -128.66581105 146.55026411 -128.67578125 143.48828125 C-128.67985678 142.44189169 -128.6839323 141.39550213 -128.68813133 140.31740379 C-128.70899323 134.77744112 -128.72329363 129.23750322 -128.73266602 123.69750977 C-128.74372192 117.98221439 -128.77811231 112.26730925 -128.81783772 106.55215168 C-128.84401657 102.15198556 -128.85235907 97.75191218 -128.85594749 93.35167503 C-128.86081127 91.24540768 -128.87241927 89.1391444 -128.89098549 87.03295326 C-128.91540022 84.07935552 -128.9144073 81.12676401 -128.9074707 78.1730957 C-128.92028076 77.30890015 -128.93309082 76.44470459 -128.94628906 75.55432129 C-128.88904245 68.84002791 -127.21139116 63.4086551 -122.5078125 58.4765625 C-114.98744817 53.25157042 -108.63149757 51.50259832 -99.4375 52.5 C-92.35086142 54.27446735 -87.36518125 58.38543806 -83.4375 64.5 C-81.08058097 69.83702343 -81.00903701 75.13448156 -80.8125 80.875 C-80.75449219 82.26525391 -80.75449219 82.26525391 -80.6953125 83.68359375 C-80.60162409 85.9555377 -80.51590652 88.22748596 -80.4375 90.5 C-59.96195448 81.07148657 -46.15117963 68.623284 -36.34619141 48.23022461 C-35.23436095 44.88965502 -35.21467369 42.10129503 -35.234375 38.58203125 C-35.22381875 37.23111021 -35.21206095 35.88019812 -35.19921875 34.52929688 C-35.18896348 32.42721102 -35.18736682 30.32639107 -35.20751953 28.22436523 C-35.27472497 19.03347916 -34.61925175 11.7497839 -28.4375 4.5 C-20.94432345 -2.32846731 -9.43147759 -4.21445948 0 0 Z " fill="#0050F2" transform="translate(308.4375,117.5)"/>
<path d="M0 0 C5.80162771 3.91145522 9.25067174 8.68428402 11.07421875 15.3984375 C11.36100915 18.39438907 11.36805265 21.37399568 11.36474609 24.38208008 C11.37146332 25.26582809 11.37818054 26.14957611 11.38510132 27.06010437 C11.40404233 29.97111694 11.40800361 32.88189845 11.41015625 35.79296875 C11.41658709 37.82549635 11.42331566 39.85802303 11.43032837 41.89054871 C11.44229154 46.14816432 11.4460102 50.40569885 11.44482422 54.66333008 C11.44462114 60.10383454 11.4719169 65.54381603 11.50636864 70.98419666 C11.52866854 75.18196474 11.5326608 79.37960759 11.53160477 83.57742882 C11.53395631 85.58238209 11.54275451 87.58733904 11.5582695 89.59223366 C11.57799115 92.40405931 11.5720672 95.21476545 11.56005859 98.02661133 C11.57129761 98.84509552 11.58253662 99.66357971 11.59411621 100.50686646 C11.52283737 107.11564692 9.89446869 113.21554422 5.42841148 118.25587177 C0.12772978 123.27031468 -5.68078736 125.50715901 -12.92578125 125.7734375 C-20.00235288 125.53429069 -25.80260403 123.37930424 -30.92578125 118.3984375 C-35.44076421 112.25304402 -36.07983429 107.83432225 -36.1027832 100.37231445 C-36.1093544 99.44838394 -36.1159256 98.52445343 -36.12269592 97.57252502 C-36.14242825 94.51058878 -36.1540923 91.44870161 -36.1640625 88.38671875 C-36.16813803 87.34032919 -36.17221355 86.29393963 -36.17641258 85.21584129 C-36.19727448 79.67587862 -36.21157488 74.13594072 -36.22094727 68.59594727 C-36.23200317 62.88065189 -36.26639356 57.16574675 -36.30611897 51.45058918 C-36.33229782 47.05042306 -36.34064032 42.65034968 -36.34422874 38.25011253 C-36.34909252 36.14384518 -36.36070052 34.0375819 -36.37926674 31.93139076 C-36.40368147 28.97779302 -36.40268855 26.02520151 -36.39575195 23.0715332 C-36.40856201 22.20733765 -36.42137207 21.34314209 -36.43457031 20.45275879 C-36.3773237 13.73846541 -34.69967241 8.3070926 -29.99609375 3.375 C-20.72654189 -3.06529105 -10.50801557 -5.32003661 0 0 Z " fill="#0050F2" transform="translate(215.92578125,172.6015625)"/>
<path d="M0 0 C0.33 0 0.66 0 1 0 C1.23244039 8.07564324 1.40973972 16.14987388 1.51812172 24.2280426 C1.5701615 27.97989616 1.64063963 31.72945047 1.75439453 35.47998047 C1.86363698 39.10471883 1.92295545 42.72725745 1.94877243 46.35351562 C1.96714974 47.73163488 2.0030433 49.10964301 2.05730057 50.48681641 C2.46401742 61.24522037 2.46401742 61.24522037 -1.16905212 65.59983826 C-3.6925843 67.64688914 -6.19838599 69.3604647 -9 71 C-9.61920822 71.4070668 -10.23841644 71.81413361 -10.87638855 72.23353577 C-19.91030642 78.01529354 -35.1474949 86 -46 86 C-46 72.8 -46 59.6 -46 46 C-40.39 43.03 -34.78 40.06 -29 37 C-15.75081011 27.16554977 -5.79869353 15.58032808 0 0 Z " fill="#629FF5" transform="translate(273,163)"/>
<path d="M0 0 C5.0717571 4.31366288 8.55814084 9.90666581 9.28125 16.60546875 C9.51052875 23.53159772 8.85778479 29.41333576 4.453125 34.94140625 C-0.48445228 40.1739273 -5.4484498 43.34709674 -12.796875 43.9921875 C-20.01335666 44.01777786 -25.71282238 42.32362382 -31.30859375 37.72265625 C-33.91870231 35.06432397 -35.38742157 32.35416313 -37 29 C-37.33 28.34 -37.66 27.68 -38 27 C-38.6325427 19.09840097 -39.15964542 11.44235056 -34 5 C-24.47904272 -5.18945003 -12.22292024 -7.1775352 0 0 Z " fill="#0050F2" transform="translate(312,62)"/>
<path d="M0 0 C4.90377892 2.93397343 9.45682912 7.43520138 11.40234375 12.90234375 C12.90631983 20.34306752 13.11037163 27.79376941 9.47265625 34.60546875 C5.86247703 39.69330272 1.77499117 43.07142352 -4.15234375 45.10546875 C-11.0933864 46.10373106 -18.25108573 46.23671555 -24.40625 42.50390625 C-30.50697152 37.61786977 -34.53428025 32.52210857 -35.43359375 24.640625 C-35.87363531 16.79688415 -33.94902589 10.4549645 -28.73046875 4.4765625 C-20.79663958 -2.66814925 -9.75284399 -4.2656176 0 0 Z " fill="#0050F2" transform="translate(214.15234375,116.89453125)"/>
<path d="M0 0 C12.87 0 25.74 0 39 0 C39 7.92 39 15.84 39 24 C30.42 24 21.84 24 13 24 C13 25.32 13 26.64 13 28 C28.345 27.505 28.345 27.505 44 27 C44.9681648 30.8726592 45.07622858 34.03611362 45 38 C39.32504784 38.81352241 33.85307186 39.13614934 28.125 39.09765625 C27.31506592 39.0962413 26.50513184 39.09482635 25.6706543 39.09336853 C23.11373006 39.08782383 20.55689724 39.07528207 18 39.0625 C16.25390753 39.05747784 14.50781366 39.05291619 12.76171875 39.04882812 C8.50774995 39.03872848 4.25397588 39.01914289 0 39 C0 30.75 0 22.5 0 14 C8.58 14 17.16 14 26 14 C26 13.01 26 12.02 26 11 C17.42 11 8.84 11 0 11 C0 7.37 0 3.74 0 0 Z " fill="#0050F2" transform="translate(255,320)"/>
<path d="M0 0 C1.34288086 -0.0309375 1.34288086 -0.0309375 2.71289062 -0.0625 C11.42606294 -0.11282879 20.01559753 1.44776619 26.8125 7.25 C29.22193467 10.66984276 30.05969111 13.20135056 29.75 17.3125 C29.01041664 21.27455373 27.90973734 23.53047453 24.8125 26.25 C12.07700982 32.61774509 -4.46344493 33.67885169 -18.01953125 29.16015625 C-22.47877516 27.28807727 -25.32882872 25.46875924 -28.125 21.5 C-29.47379464 17.37427522 -29.41405753 14.39284815 -28.1875 10.25 C-25.32078993 4.99436487 -20.63920149 3.12545886 -15.1875 1.25 C-10.21298847 -0.1247741 -5.12301008 0.02888237 0 0 Z M-15.1875 14.25 C-15.07443303 16.20894361 -15.07443303 16.20894361 -14.1875 18.25 C-9.61463769 20.84614693 -4.85521436 20.58215056 0.25 20.5625 C1.08337891 20.57861328 1.91675781 20.59472656 2.77539062 20.61132812 C7.89380611 20.6153743 11.33720345 20.00794698 15.8125 17.25 C15.69943303 15.29105639 15.69943303 15.29105639 14.8125 13.25 C10.23963769 10.65385307 5.48021436 10.91784944 0.375 10.9375 C-0.45837891 10.92138672 -1.29175781 10.90527344 -2.15039062 10.88867188 C-7.26880611 10.8846257 -10.71220345 11.49205302 -15.1875 14.25 Z " fill="#0050F2" transform="translate(288.1875,361.75)"/>
<path d="M0 0 C5.20309276 3.07286791 8.79112857 6.87821118 10.73828125 12.6171875 C11.35892042 19.28268215 11.94281297 26.05635523 7.73828125 31.6171875 C2.45205963 37.00782832 -2.29011077 39.89004983 -10.01171875 39.9921875 C-16.84882809 39.83259895 -22.24482061 38.74228663 -27.11328125 33.69921875 C-31.09048253 28.37429287 -32.72043288 23.25811711 -32.26171875 16.6171875 C-31.04330875 10.43670451 -28.81047928 5.34838548 -23.71875 1.4296875 C-16.84691057 -2.79012008 -7.34228738 -3.11277812 0 0 Z M-16.26171875 11.6171875 C-18.93893872 15.63301745 -18.95290351 18.89835825 -18.26171875 23.6171875 C-16.33842529 26.46651115 -15.00114849 27.33279145 -11.82421875 28.5546875 C-8.44292124 28.63715817 -6.93085131 27.6370716 -4.26171875 25.6171875 C-1.77012835 21.8798019 -1.8037859 20.04387167 -2.26171875 15.6171875 C-4.24568977 12.10708493 -5.39822991 10.88702776 -9.26171875 9.6796875 C-12.39330571 9.6144461 -13.73978479 9.8158061 -16.26171875 11.6171875 Z " fill="#0050F2" transform="translate(209.26171875,341.3828125)"/>
<path d="M0 0 C4.29 0 8.58 0 13 0 C13 8.91 13 17.82 13 27 C16.3 27 19.6 27 23 27 C23 31.29 23 35.58 23 40 C19.7 40 16.4 40 13 40 C13 50.56 13 61.12 13 72 C8.71 72 4.42 72 0 72 C0 48.24 0 24.48 0 0 Z " fill="#0050F2" transform="translate(226,319)"/>
<path d="M0 0 C4.62 0 9.24 0 14 0 C14 4.62 14 9.24 14 14 C17.3 14 20.6 14 24 14 C24 17.96 24 21.92 24 26 C20.7 26 17.4 26 14 26 C14 31.28 14 36.56 14 42 C9.38 42 4.76 42 0 42 C0 28.14 0 14.28 0 0 Z " fill="#0050F2" transform="translate(302,319)"/>
<path d="M0 0 C4.62 0 9.24 0 14 0 C14 2.64 14 5.28 14 8 C19.28 8 24.56 8 30 8 C30 11.96 30 15.92 30 20 C14.82 20 -0.36 20 -16 20 C-16 16.04 -16 12.08 -16 8 C-10.72 8 -5.44 8 0 8 C0 5.36 0 2.72 0 0 Z " fill="#0050F2" transform="translate(192,318)"/>
<path d="M0 0 C1.32 0 2.64 0 4 0 C4 9.57 4 19.14 4 29 C2.68 29 1.36 29 0 29 C0 24.38 0 19.76 0 15 C-0.99 15 -1.98 15 -3 15 C-3.13277344 15.62648438 -3.26554688 16.25296875 -3.40234375 16.8984375 C-3.57894531 17.71570313 -3.75554687 18.53296875 -3.9375 19.375 C-4.11152344 20.18710937 -4.28554687 20.99921875 -4.46484375 21.8359375 C-5 24 -5 24 -6 26 C-7.65 25.67 -9.3 25.34 -11 25 C-10.69255859 24.07380859 -10.69255859 24.07380859 -10.37890625 23.12890625 C-8.54784707 17.37289724 -7.48550136 12.02021684 -7 6 C-7.99 6 -8.98 6 -10 6 C-9.938125 6.94875 -9.87625 7.8975 -9.8125 8.875 C-9.82238614 13.69943543 -10.79037501 18.69617819 -13 23 C-15.109375 23.7890625 -15.109375 23.7890625 -17 24 C-18.1659015 20.50229549 -17.75567572 19.53777352 -16.625 16.125 C-15.52480496 12.76272169 -14.63650123 9.48203614 -14 6 C-14.99 6 -15.98 6 -17 6 C-17 4.68 -17 3.36 -17 2 C-12.38 2 -7.76 2 -3 2 C-3 4.97 -3 7.94 -3 11 C-2.01 11 -1.02 11 0 11 C0 7.37 0 3.74 0 0 Z " fill="#828282" transform="translate(254,409)"/>
<path d="M0 0 C3.3501397 2.66293155 4.2654508 5.27970017 4.9375 9.375 C5.28101455 14.05148222 4.24833454 16.91968917 2 21 C0 23 0 23 -3.875 23.4375 C-7.32207166 23.36242766 -7.7903415 23.19890678 -10.4375 20.6875 C-12.98886999 16.29914362 -13.33554025 13.03310368 -13 8 C-12.22365626 5.44915628 -11.24292315 3.39023682 -10 1 C-6.77752226 -0.61123887 -3.4851632 -0.58661163 0 0 Z M-6.6015625 4.15625 C-8.50692701 6.6683507 -8.40019503 8.37581634 -8.375 11.5 C-8.38273437 12.4590625 -8.39046875 13.418125 -8.3984375 14.40625 C-7.94918203 17.33081505 -7.28928166 18.207335 -5 20 C-1.87802522 18.6910428 -1.87802522 18.6910428 0 16 C0.41974782 11.81866594 0.63782635 8.18867638 -1.375 4.4375 C-3.51018144 2.54868565 -4.29083365 2.48801649 -6.6015625 4.15625 Z " fill="#828282" transform="translate(353,411)"/>
<path d="M0 0 C1.32 0 2.64 0 4 0 C4 1.98 4 3.96 4 6 C10.6 6 17.2 6 24 6 C24 7.32 24 8.64 24 10 C20.7 10 17.4 10 14 10 C14 10.99 14 11.98 14 13 C18.29 13 22.58 13 27 13 C27 13.99 27 14.98 27 16 C17.1 16 7.2 16 -3 16 C-3 15.01 -3 14.02 -3 13 C1.29 13 5.58 13 10 13 C10 12.01 10 11.02 10 10 C6.7 10 3.4 10 0 10 C0 6.7 0 3.4 0 0 Z " fill="#828282" transform="translate(312,409)"/>
<path d="M0 0 C1.32 0 2.64 0 4 0 C4 0.99 4 1.98 4 3 C6.31 3 8.62 3 11 3 C11 4.32 11 5.64 11 7 C10.01 7.495 10.01 7.495 9 8 C9.99 9.485 9.99 9.485 11 11 C10.9375 13 10.9375 13 10 15 C7.64222397 17.13673453 5.94160634 17.9869899 2.73828125 18.03125 C-3.53440265 17.46559735 -3.53440265 17.46559735 -6 15 C-6.1875 11.9375 -6.1875 11.9375 -6 9 C-5.67 8.67 -5.34 8.34 -5 8 C-5.66 7.67 -6.32 7.34 -7 7 C-7 5.68 -7 4.36 -7 3 C-4.69 3 -2.38 3 0 3 C0 2.01 0 1.02 0 0 Z M-2 11 C-1.67 11.99 -1.34 12.98 -1 14 C0.98 14 2.96 14 5 14 C5 12.68 5 11.36 5 10 C1.37114676 9.84850702 1.37114676 9.84850702 -2 11 Z " fill="#828282" transform="translate(214,408)"/>
<path d="M0 0 C5.28 0 10.56 0 16 0 C16 1.32 16 2.64 16 4 C12.37 4 8.74 4 5 4 C5 8.62 5 13.24 5 18 C9.62 17.67 14.24 17.34 19 17 C19.33 18.32 19.66 19.64 20 21 C13.32473613 22.24190956 6.78133093 22.06991063 0 22 C0 14.74 0 7.48 0 0 Z " fill="#828282" transform="translate(274,411)"/>
<path d="M0 0 C7.92 0 15.84 0 24 0 C24 1.32 24 2.64 24 4 C22.68 4 21.36 4 20 4 C20 5.32 20 6.64 20 8 C21.32 8 22.64 8 24 8 C24 8.99 24 9.98 24 11 C16.08 11 8.16 11 0 11 C0 10.01 0 9.02 0 8 C1.32 8 2.64 8 4 8 C4 6.68 4 5.36 4 4 C2.68 4 1.36 4 0 4 C0 2.68 0 1.36 0 0 Z M8 4 C8 5.32 8 6.64 8 8 C10.31 8 12.62 8 15 8 C15 6.68 15 5.36 15 4 C12.69 4 10.38 4 8 4 Z " fill="#828282" transform="translate(312,427)"/>
<path d="M0 0 C7.26 0 14.52 0 22 0 C22 3.63 22 7.26 22 11 C14.74 11 7.48 11 0 11 C0 7.37 0 3.74 0 0 Z M5 4 C5 5.32 5 6.64 5 8 C9.29 8 13.58 8 18 8 C18 6.68 18 5.36 18 4 C13.71 4 9.42 4 5 4 Z " fill="#828282" transform="translate(210,427)"/>
<path d="M0 0 C2.9375 2.0625 2.9375 2.0625 5 5 C5.65622237 9.08316143 5.37781677 11.22793965 3.5625 14.9375 C0.29952023 17.56380079 -1.77075324 17.67645366 -5.87109375 17.40625 C-8 17 -8 17 -10.5625 15.5625 C-12.70907738 11.73599249 -12.89487669 8.27813857 -12 4 C-8.57473068 -0.25563764 -5.29763755 -0.85140604 0 0 Z M-6 4 C-8.20857238 5.82786272 -8.20857238 5.82786272 -8.4375 8.4375 C-8.26416051 11.25299859 -8.26416051 11.25299859 -5.5 12.8125 C-4.675 13.204375 -3.85 13.59625 -3 14 C-0.83358335 12.33454661 -0.83358335 12.33454661 1 10 C0.85974801 7.29294488 0.85974801 7.29294488 0 5 C-2.90073181 4.32198966 -2.90073181 4.32198966 -6 4 Z " fill="#828282" transform="translate(145,417)"/>
<path d="M0 0 C4.95 0 9.9 0 15 0 C15 2.97 15 5.94 15 9 C11.37 9 7.74 9 4 9 C4 9.99 4 10.98 4 12 C4.804375 11.835 5.60875 11.67 6.4375 11.5 C10.65887352 10.90752652 14.74664545 10.91493291 19 11 C19 12.32 19 13.64 19 15 C12.73 15 6.46 15 0 15 C0 12.03 0 9.06 0 6 C3.63 6 7.26 6 11 6 C11 5.01 11 4.02 11 3 C7.37 3 3.74 3 0 3 C0 2.01 0 1.02 0 0 Z " fill="#828282" transform="translate(163,410)"/>
<path d="M0 0 C1.216875 0.00386719 2.43375 0.00773437 3.6875 0.01171875 C6.75403108 0.29016556 8.52004375 0.53171214 11 2.3125 C11.9375 5.25 11.9375 5.25 12 8.3125 C10.21220342 10.90480504 9.03997185 11.29917605 6 12.3125 C4.04524991 12.4572963 2.0848862 12.53317502 0.125 12.5625 C-1.41800781 12.60117187 -1.41800781 12.60117187 -2.9921875 12.640625 C-6.42992835 12.26559873 -8.27984384 11.42543437 -11 9.3125 C-11.5625 6.3125 -11.5625 6.3125 -11 3.3125 C-7.67142616 -0.16256364 -4.65320783 -0.06408019 0 0 Z M-7 5.3125 C-6.67 6.3025 -6.34 7.2925 -6 8.3125 C0.68531992 9.48537572 0.68531992 9.48537572 7 7.3125 C6.67 6.3225 6.34 5.3325 6 4.3125 C1.74007062 2.18253531 -3.05381703 2.7869429 -7 5.3125 Z " fill="#828282" transform="translate(176,426.6875)"/>
<path d="M0 0 C1.65 0 3.3 0 5 0 C5 9.57 5 19.14 5 29 C3.35 29 1.7 29 0 29 C0 24.05 0 19.1 0 14 C-2.64 14 -5.28 14 -8 14 C-8 12.68 -8 11.36 -8 10 C-5.36 10 -2.72 10 0 10 C0 6.7 0 3.4 0 0 Z " fill="#828282" transform="translate(295,409)"/>
<path d="M0 0 C1.32 0 2.64 0 4 0 C4 3.96 4 7.92 4 12 C5.65 12 7.3 12 9 12 C9 13.32 9 14.64 9 16 C7.35 16 5.7 16 4 16 C4 20.29 4 24.58 4 29 C2.68 29 1.36 29 0 29 C0 19.43 0 9.86 0 0 Z " fill="#828282" transform="translate(153,409)"/>
<path d="M0 0 C1.32 0 2.64 0 4 0 C4 9.57 4 19.14 4 29 C2.68 29 1.36 29 0 29 C0 19.43 0 9.86 0 0 Z " fill="#828282" transform="translate(362,409)"/>
<path d="M0 0 C1.32 0 2.64 0 4 0 C4 9.57 4 19.14 4 29 C2.68 29 1.36 29 0 29 C0 19.43 0 9.86 0 0 Z " fill="#828282" transform="translate(260,409)"/>
<path d="M0 0 C1.32 0 2.64 0 4 0 C4 1.98 4 3.96 4 6 C5.32 6 6.64 6 8 6 C8 7.32 8 8.64 8 10 C6.68 10 5.36 10 4 10 C4 12.64 4 15.28 4 18 C2.68 18 1.36 18 0 18 C0 12.06 0 6.12 0 0 Z " fill="#828282" transform="translate(183,409)"/>
<path d="M0 0 C1.32 0 2.64 0 4 0 C4 2.31 4 4.62 4 7 C5.32 7 6.64 7 8 7 C8 8.32 8 9.64 8 11 C6.68 11 5.36 11 4 11 C4 12.98 4 14.96 4 17 C2.68 17 1.36 17 0 17 C0 11.39 0 5.78 0 0 Z " fill="#828282" transform="translate(228,409)"/>
<path d="M0 0 C1.32 0 2.64 0 4 0 C4 1.32 4 2.64 4 4 C6.64 4 9.28 4 12 4 C12 4.99 12 5.98 12 7 C5.73 7 -0.54 7 -7 7 C-7 6.01 -7 5.02 -7 4 C-4.69 4 -2.38 4 0 4 C0 2.68 0 1.36 0 0 Z " fill="#828282" transform="translate(139,409)"/>
<path d="M0 0 C1.65 0 3.3 0 5 0 C5.49230769 6.4 5.49230769 6.4 3 9.4375 C2.01 10.2109375 2.01 10.2109375 1 11 C0.67 10.01 0.34 9.02 0 8 C0.66 7.01 1.32 6.02 2 5 C1.34 5 0.68 5 0 5 C0 3.35 0 1.7 0 0 Z " fill="#828282" transform="translate(193,432)"/>
</svg>
